<svg xmlns="http://www.w3.org/2000/svg" xmlns:xlink="http://www.w3.org/1999/xlink" width="24" height="24" viewBox="0 0 24 24" version="1.1">
<g id="Social icon" clip-path="url(#clip0_22_2380)">
<ellipse fill="#FFFFFF" cx="11.984" cy="12.04" rx="11.322" ry="11.322"/>
<g id="surface1" transform="matrix(0.873451, 0, 0, 0.873451, -1.269979, 0.881519)" style="">
<path fill="#000000" d="M 20.320312 12.621094 C 20.347656 15.617188 22.90625 16.613281 22.933594 16.628906 C 22.914062 16.699219 22.527344 18.050781 21.585938 19.445312 C 20.773438 20.652344 19.929688 21.855469 18.601562 21.878906 C 17.296875 21.90625 16.878906 21.09375 15.386719 21.09375 C 13.894531 21.09375 13.425781 21.855469 12.191406 21.90625 C 10.910156 21.953125 9.933594 20.601562 9.113281 19.398438 C 7.441406 16.9375 6.160156 12.445312 7.878906 9.414062 C 8.730469 7.910156 10.257812 6.957031 11.914062 6.933594 C 13.171875 6.90625 14.359375 7.792969 15.128906 7.792969 C 15.898438 7.792969 17.34375 6.726562 18.859375 6.882812 C 19.496094 6.910156 21.28125 7.144531 22.425781 8.851562 C 22.332031 8.90625 20.296875 10.113281 20.320312 12.621094 M 17.867188 5.257812 C 18.546875 4.421875 19.003906 3.253906 18.878906 2.09375 C 17.898438 2.136719 16.710938 2.761719 16.007812 3.597656 C 15.378906 4.335938 14.824219 5.523438 14.972656 6.660156 C 16.066406 6.746094 17.1875 6.09375 17.867188 5.257812 "/>
</g>
</g>
<defs>
<clipPath id="clip0_22_2380">
<rect width="24" height="24" fill="white"/>
</clipPath>
</defs>
</svg>

