<svg width="27" height="26" viewBox="0 0 27 26" fill="none" xmlns="http://www.w3.org/2000/svg">
<g clip-path="url(#clip0_1570_45154)">
<rect x="0.5" width="26" height="26" rx="13" fill="#2B61D1"/>
<path d="M18.8206 8.44486C17.5469 7.41986 15.5319 7.24611 15.4456 7.23985C15.3119 7.22861 15.1844 7.30361 15.1294 7.42736C15.1244 7.43486 15.0806 7.53611 15.0319 7.69361C15.8744 7.83611 16.9094 8.12236 17.8456 8.70361C17.9956 8.79611 18.0419 8.99361 17.9494 9.1436C17.8881 9.24236 17.7844 9.29611 17.6769 9.29611C17.6194 9.29611 17.5606 9.27985 17.5081 9.24735C15.8981 8.2486 13.8881 8.19861 13.5006 8.19861C13.1131 8.19861 11.1019 8.2486 9.49313 9.24735C9.34313 9.3411 9.14563 9.29485 9.05313 9.14486C8.95938 8.99361 9.00563 8.79736 9.15562 8.70361C10.0919 8.12361 11.1269 7.83611 11.9694 7.69486C11.9206 7.53611 11.8769 7.43611 11.8731 7.42736C11.8169 7.30361 11.6906 7.22611 11.5556 7.23985C11.4694 7.24611 9.45438 7.41986 8.16313 8.45861C7.48938 9.08236 6.14062 12.7274 6.14062 15.8786C6.14062 15.9349 6.15562 15.9886 6.18313 16.0374C7.11313 17.6724 9.65187 18.0999 10.2306 18.1186C10.2331 18.1186 10.2369 18.1186 10.2406 18.1186C10.3431 18.1186 10.4394 18.0699 10.4994 17.9874L11.0844 17.1824C9.50562 16.7749 8.69938 16.0824 8.65313 16.0411C8.52063 15.9249 8.50813 15.7224 8.62562 15.5899C8.74187 15.4574 8.94438 15.4449 9.07687 15.5611C9.09562 15.5786 10.5806 16.8386 13.5006 16.8386C16.4256 16.8386 17.9106 15.5736 17.9256 15.5611C18.0581 15.4461 18.2594 15.4574 18.3769 15.5911C18.4931 15.7236 18.4806 15.9249 18.3481 16.0411C18.3019 16.0824 17.4956 16.7749 15.9169 17.1824L16.5019 17.9874C16.5619 18.0699 16.6581 18.1186 16.7606 18.1186C16.7644 18.1186 16.7681 18.1186 16.7706 18.1186C17.3494 18.0999 19.8881 17.6724 20.8181 16.0374C20.8456 15.9886 20.8606 15.9349 20.8606 15.8786C20.8606 12.7274 19.5119 9.08236 18.8206 8.44486ZM11.4206 14.5986C10.8019 14.5986 10.3006 14.0261 10.3006 13.3186C10.3006 12.6111 10.8019 12.0386 11.4206 12.0386C12.0394 12.0386 12.5406 12.6111 12.5406 13.3186C12.5406 14.0261 12.0394 14.5986 11.4206 14.5986ZM15.5806 14.5986C14.9619 14.5986 14.4606 14.0261 14.4606 13.3186C14.4606 12.6111 14.9619 12.0386 15.5806 12.0386C16.1994 12.0386 16.7006 12.6111 16.7006 13.3186C16.7006 14.0261 16.1994 14.5986 15.5806 14.5986Z" fill="white"/>
</g>
<defs>
<clipPath id="clip0_1570_45154">
<rect width="26" height="26" fill="white" transform="translate(0.5)"/>
</clipPath>
</defs>
</svg>
