<svg id="Layer_1" data-name="Layer 1"
    xmlns="http://www.w3.org/2000/svg" version="1.1" viewBox="-5.8 0 64 64">
    <defs/>
    <path id="Fingerprint_Purple" data-name="Fingerprint Purple" d="M30.3 36.3v-4.8c0-1.9-1.5-3.4-3.4-3.4s-3.4 1.5-3.4 3.4v4.3c0 5.2-1.9 10.2-5.4 14.1l-4.8 5.3c-.4.5-.3 1.2.2 1.5.4.3 1 .3 1.4 0l4.7-5.3c3.9-4.3 6-9.8 6-15.6v-4.3c.1-.7.7-1.2 1.4-1.1.6.1 1.1.5 1.1 1.1v4.8c0 6.4-2.4 12.6-6.7 17.4l-4.7 5.2c-.4.4-.4 1.1.1 1.5.4.4 1.1.4 1.5 0l4.7-5.2c4.7-5 7.3-11.7 7.3-18.7Zm4.7-4.8c.2-4.5-3.4-8.3-7.8-8.4s-8.3 3.4-8.4 7.8v4.9c0 4.1-1.5 8-4.2 11l-4 4.4c-.4.5-.3 1.2.2 1.5.4.3 1 .3 1.4 0l4-4.4c3.1-3.4 4.8-7.9 4.8-12.5v-4.3c0-3.3 2.7-5.9 5.9-5.9s5.9 2.7 5.9 5.9v4.8c0 7.6-2.8 14.9-7.9 20.5l-4 4.4c-.4.4-.5 1.1 0 1.6.4.4 1.1.5 1.6 0h.1l4-4.5c5.5-6 8.5-13.9 8.5-22v-4.7Zm4.7 0c0-7.1-5.7-12.8-12.8-12.8s-12.8 5.7-12.8 12.8v4.3c0 2.9-1.1 5.7-3 7.9l-3.3 3.6c-.4.5-.3 1.2.2 1.5.4.3 1 .3 1.4 0l3.3-3.6c2.3-2.6 3.6-5.9 3.6-9.4v-4.3c-.2-5.9 4.4-10.8 10.3-10.9S37.3 25.1 37.4 31v5.5c0 8.7-3.3 17.2-9.1 23.6l-1.9 2.1c-.4.5-.4 1.2.1 1.6.5.4 1.2.4 1.6 0l1.9-2.1c6.3-6.9 9.7-15.8 9.7-25.2v-4.8Zm-28.2 4.4c.1-.6-.4-1.1-1-1.2-.6 0-1.1.4-1.2 1v.2c0 1.8-.7 3.4-1.8 4.8l-2.8 3c-.4.5-.4 1.1 0 1.6.5.4 1.1.4 1.6 0l2.7-3c1.6-1.8 2.4-4 2.4-6.3Zm30.7 9.8c-.6-.2-1.2.2-1.3.8-.4 1.5-.9 3.1-1.5 4.5 0 .6.3 1.2.9 1.3.4 0 .9 0 1.1-.5.6-1.6 1.2-3.2 1.7-4.8 0-.6-.3-1.2-.9-1.3Zm-3.7-27.2c-.5-.4-1.1-.4-1.6.1-.4.5-.4 1.1 0 1.5 3.2 2.9 5.1 7 5.1 11.4v4.8c0 1.8 0 3.7-.4 5.5 0 .6.3 1.1.9 1.2.6 0 1.1-.3 1.2-.9.3-1.9.4-3.8.4-5.8v-4.8c0-4.9-2-9.6-5.7-13ZM6.9 35.9v-4.3c0-5.1 1.9-10 5.4-13.7.5-.4.5-1.1.1-1.6s-1.1-.5-1.6-.1h-.1c-3.9 4.2-6.1 9.6-6.1 15.3v4.3c0 .6-.2 1.2-.7 1.6L2.7 39c-.4.5-.3 1.2.2 1.5.4.3 1 .3 1.4 0l1.4-1.4c.7-.8 1.2-1.9 1.2-3.1ZM52.3 23c-1.2-3.6-3.1-6.8-5.7-9.6-.4-.4-1.1-.5-1.5-.1s-.5 1.1 0 1.5c2.3 2.5 4.1 5.5 5.2 8.8.2.6.9.8 1.4.6.6 0 .8-.7.7-1.2ZM35.5 6.1c-.6-.2-1.2 0-1.4.7s0 1.2.7 1.4c2.4.8 4.7 2 6.8 3.6.5.4 1.2.3 1.5-.2.4-.5.3-1.2-.2-1.5-2.3-1.8-4.7-3.1-7.4-4ZM9.8 13.7C15.3 8.4 22.9 6 30.4 7.1c.6 0 1.2-.3 1.3-.9.1-.6-.3-1.1-.9-1.2C16 2.9 2.4 13 .3 27.7c-.2.9-.3 1.7-.3 2.6s.4 1.1 1 1.1h.1c.6 0 1-.4 1.1-1 .3-6.3 3-12.3 7.6-16.7ZM26.8 0c-2.4 0-4.9.3-7.3.9-.6.1-1 .7-.9 1.3s.7 1 1.3.9c2.2-.5 4.5-.8 6.8-.8 8 0 15.6 3.2 21.2 9 .4.5 1.1.5 1.6.1s.5-1.1 0-1.6C43.6 3.5 35.4 0 26.8 0ZM2.2 13.7c.5.3 1.1.3 1.5-.2 3.1-4 7.2-7.1 11.9-9.1.6 0 1-.7.9-1.3-.1-.6-.7-1-1.3-.9-.1 0-.3 0-.4.2-5 2.1-9.4 5.4-12.8 9.7-.4.5-.3 1.2.2 1.6Zm9.1 18.5c.1-.2.2-.4.2-.6.1-2.2.6-4.4 1.4-6.5.2-.6-.1-1.2-.6-1.4-.6-.2-1.2.1-1.4.6-.9 2.3-1.5 4.7-1.6 7.2 0 .6.4 1.1 1 1.1s.7 0 1-.4ZM49 35.9v-4.3c0-5.7-2.1-11.1-6-15.2-.4-.4-1.1-.5-1.5 0-.4.4-.4 1.1 0 1.5 3.5 3.7 5.4 8.6 5.4 13.7V36c0 1.2.5 1.5 1.1 1.5s1-.7 1-1.6Z" fill="#1b63ef" stroke-width="0"/>
    <path d="M16.1 12.2v1.6h2.6v.8h-2.6v2h-1v-5.3H19v.8h-2.9ZM19.8 11.1h1v5.7h-1v-5.7ZM26 12.6v4.1h-.9v-.5c-.2.2-.3.3-.6.4-.2 0-.5.1-.7.1-.5 0-1-.2-1.3-.5s-.5-.8-.5-1.3v-2.3h1v2.2c0 .4 0 .6.2.8s.4.3.7.3.6-.1.8-.3c.2-.2.3-.5.3-.9v-2.1h1ZM29.8 16.7l-1-1.4-1.1 1.4h-1.1l1.6-2.1-1.5-2h1.1l1 1.3 1-1.3h1l-1.5 2 1.6 2.1h-1.1ZM31.9 11.4h.6v5.3h-.6v-5.3ZM33 11.4h2.2c.6 0 1.1.1 1.5.3.4.2.8.5 1 .9s.4.9.4 1.4-.1 1-.4 1.4c-.2.4-.6.7-1 .9-.4.2-.9.3-1.5.3H33v-5.3Zm2.2 4.8c.5 0 .9 0 1.2-.3s.6-.4.8-.8.3-.7.3-1.1 0-.8-.3-1.1c-.2-.3-.5-.6-.8-.8s-.8-.3-1.2-.3h-1.6v4.4h1.6Z" fill="#fff"/>
</svg>