<svg width="24" height="25" viewBox="0 0 24 25" fill="none" xmlns="http://www.w3.org/2000/svg">
<g id="Social icon">
<path id="Vector" fill-rule="evenodd" clip-rule="evenodd" d="M11.9901 0.5C18.6313 0.5 24 5.99998 24 12.8042C24 18.2432 20.5601 22.8472 15.7879 24.4767C15.1913 24.5991 14.9728 24.2119 14.9728 23.8862C14.9728 23.6009 14.9924 22.6232 14.9924 21.6044C18.3333 22.3379 19.029 20.1377 19.029 20.1377C19.5659 18.7117 20.3614 18.3452 20.3614 18.3452C21.4549 17.5914 20.2818 17.5914 20.2818 17.5914C19.0688 17.6729 18.4324 18.8544 18.4324 18.8544C17.3588 20.7284 15.6289 20.1989 14.9329 19.8729C14.8336 19.0784 14.5153 18.5284 14.1772 18.2229C16.8418 17.9377 19.6453 16.8784 19.6453 12.1522C19.6453 10.8077 19.1684 9.70771 18.4127 8.85222C18.5319 8.54672 18.9496 7.28347 18.2932 5.59273C18.2932 5.59273 17.2792 5.26673 14.9927 6.85572C14.0137 6.58639 13.0042 6.44938 11.9901 6.44823C10.976 6.44823 9.94228 6.59097 8.98771 6.85572C6.70097 5.26673 5.68691 5.59273 5.68691 5.59273C5.03053 7.28347 5.44845 8.54672 5.56768 8.85222C4.79208 9.70771 4.33483 10.8077 4.33483 12.1522C4.33483 16.8784 7.13831 17.9172 9.82281 18.2229C9.38522 18.6099 9.00762 19.3432 9.00762 20.5044C9.00762 22.1544 9.02729 23.4787 9.02729 23.8859C9.02729 24.2119 8.8085 24.5991 8.21211 24.4769C3.43999 22.8469 5.34058e-05 18.2432 5.34058e-05 12.8042C-0.0196133 5.99998 5.3688 0.5 11.9901 0.5Z" fill="#24292F"/>
</g>
</svg>
