<svg width="25" height="25" viewBox="0 0 25 25" fill="none" xmlns="http://www.w3.org/2000/svg">
<g id="Social icon">
<g id="Group">
<path id="Vector" d="M0.674015 9.81866L0.699739 9.74149L4.04386 1.04676C4.12104 0.866692 4.22393 0.738072 4.37828 0.635176C4.53262 0.532279 4.71269 0.480831 4.89276 0.506555C5.07283 0.506555 5.2529 0.583727 5.40724 0.686624C5.56158 0.78952 5.66448 0.969588 5.6902 1.12393L7.9282 7.99225H17.0345L19.2725 1.12393C19.3239 0.969588 19.4268 0.78952 19.5555 0.686624C19.7098 0.583727 19.8642 0.506555 20.0699 0.506555C20.25 0.506555 20.4301 0.532279 20.5844 0.635176C20.7388 0.738072 20.8674 0.866692 20.9188 1.04676L24.263 9.71576L24.2887 9.79293C25.2662 12.3653 24.443 15.2722 22.2308 16.9185L22.205 16.9442L17.1374 20.7257L14.6422 22.6292L13.1245 23.7868C12.7643 24.0698 12.2498 24.0698 11.8897 23.7868L10.372 22.6292L7.87675 20.7257L2.78339 16.9185C2.78339 16.9185 2.78339 16.9185 2.75766 16.9185C0.51967 15.2979 -0.303499 12.3911 0.674015 9.81866Z" fill="#E24329"/>
<path id="Vector_2" d="M0.673133 9.81863L0.698857 9.74146C2.3452 10.0759 3.86291 10.7704 5.17484 11.7479C5.20056 11.7479 9.13634 14.7319 12.4805 17.2529C9.98524 19.1307 7.82442 20.7771 7.82442 20.7771L2.73106 16.9699C2.73106 16.9699 2.73106 16.9699 2.70533 16.9699C0.518789 15.2978 -0.30438 12.391 0.673133 9.81863Z" fill="#FC6D26"/>
<path id="Vector_3" d="M17.1367 20.7771L14.6415 22.6807L13.1238 23.8383C12.7636 24.1212 12.2492 24.1212 11.889 23.8383L10.3713 22.6807L7.87606 20.7771C7.87606 20.7771 10.0369 19.1308 12.5321 17.2529C14.9759 19.1308 17.1367 20.7771 17.1367 20.7771Z" fill="#FCA326"/>
<path id="Vector_4" d="M19.787 11.7223C21.0989 10.7448 22.6166 10.0502 24.263 9.71582L24.2887 9.79299C25.2662 12.3654 24.443 15.2722 22.2308 16.9186L22.205 16.9443L17.1374 20.7257C17.1374 20.7257 14.9766 19.0794 12.4813 17.2015C15.8255 14.732 19.7613 11.748 19.787 11.7223Z" fill="#FC6D26"/>
</g>
</g>
</svg>
