<svg width="24" height="24" viewBox="0 0 24 24" fill="none" xmlns="http://www.w3.org/2000/svg">
<g id="Social icon" clip-path="url(#clip0_22_2380)">
<path id="Vector" d="M23.7663 12.2765C23.7663 11.4608 23.7001 10.6406 23.559 9.83813H12.2402V14.4591H18.722C18.453 15.9495 17.5888 17.2679 16.3233 18.1056V21.104H20.1903C22.4611 19.014 23.7663 15.9274 23.7663 12.2765Z" fill="#4285F4"/>
<path id="Vector_2" d="M12.2391 24.0008C15.4756 24.0008 18.205 22.9382 20.1936 21.1039L16.3266 18.1055C15.2507 18.8375 13.8618 19.252 12.2435 19.252C9.11291 19.252 6.45849 17.1399 5.50607 14.3003H1.51562V17.3912C3.55274 21.4434 7.70192 24.0008 12.2391 24.0008Z" fill="#34A853"/>
<path id="Vector_3" d="M5.50277 14.3002C5.00011 12.8099 5.00011 11.196 5.50277 9.70569V6.61475H1.51674C-0.185266 10.0055 -0.185266 14.0004 1.51674 17.3912L5.50277 14.3002Z" fill="#FBBC04"/>
<path id="Vector_4" d="M12.2391 4.74966C13.9499 4.7232 15.6034 5.36697 16.8425 6.54867L20.2685 3.12262C18.0991 1.0855 15.2198 -0.034466 12.2391 0.000808666C7.70192 0.000808666 3.55274 2.55822 1.51562 6.61481L5.50166 9.70575C6.44967 6.86173 9.1085 4.74966 12.2391 4.74966Z" fill="#EA4335"/>
</g>
<defs>
<clipPath id="clip0_22_2380">
<rect width="24" height="24" fill="white"/>
</clipPath>
</defs>
</svg>
