<svg width="26" height="26" viewBox="0 0 26 26" fill="none" xmlns="http://www.w3.org/2000/svg">
<g clip-path="url(#clip0_91_11973)">
<rect width="26" height="26" rx="13" fill="#2B61D1"/>
<path d="M18.1992 13.4846V17.0698H16.1006V13.7032C16.1006 12.8725 15.7945 12.3041 15.0512 12.3041C14.4829 12.3041 14.1331 12.6976 14.0019 13.0474C13.9582 13.1786 13.9145 13.3535 13.9145 13.5721V17.0698H11.8158C11.8158 17.0698 11.8595 11.386 11.8158 10.8176H13.9145V11.692C14.1768 11.2548 14.7015 10.6427 15.7945 10.6427C17.1499 10.6427 18.1992 11.5609 18.1992 13.4846ZM9.62971 7.80078C8.93016 7.80078 8.44922 8.28172 8.44922 8.89383C8.44922 9.50594 8.88644 9.98688 9.58599 9.98688C10.3293 9.98688 10.7665 9.50594 10.7665 8.89383C10.8102 8.238 10.373 7.80078 9.62971 7.80078ZM8.58038 17.0698H10.679V10.8176H8.58038V17.0698Z" fill="white"/>
</g>
<defs>
<clipPath id="clip0_91_11973">
<rect width="26" height="26" fill="white"/>
</clipPath>
</defs>
</svg>
