<svg width="26" height="26" viewBox="0 0 26 26" fill="none" xmlns="http://www.w3.org/2000/svg">
<g clip-path="url(#clip0_91_11970)">
<rect width="26" height="26" rx="13" fill="#2B61D1"/>
<path fill-rule="evenodd" clip-rule="evenodd" d="M7.32218 17.5869C7.06721 17.5115 6.83457 17.3773 6.64388 17.1957C6.4532 17.014 6.31007 16.7903 6.22658 16.5433C5.74946 15.2668 5.60809 9.9365 6.52699 8.88425C6.83281 8.54194 7.26459 8.33119 7.72861 8.29774C10.1937 8.03899 17.8099 8.07349 18.6846 8.38399C18.9307 8.46191 19.1554 8.59317 19.3421 8.76793C19.5288 8.94269 19.6725 9.15643 19.7626 9.39313C20.2839 10.7128 20.3015 15.5083 19.6919 16.7762C19.5302 17.1062 19.2594 17.3735 18.9232 17.5352C18.0043 17.9837 8.54148 17.9751 7.32218 17.5869ZM11.2363 15.0857L15.6541 12.8431L11.2363 10.5834V15.0857Z" fill="white"/>
</g>
<defs>
<clipPath id="clip0_91_11970">
<rect width="26" height="26" fill="white"/>
</clipPath>
</defs>
</svg>
