<?xml version="1.0" encoding="UTF-8"?>
<svg
    xmlns="http://www.w3.org/2000/svg" width="247" height="247" viewBox="0 0 247 247" fill="none">
    <circle cx="122.58" cy="123.537" r="122.58" fill="#1B63EF"></circle>
    <path d="M116.091 129.967L122.399 133.609L122.399 188.968L116.091 185.326L116.091 129.967Z" fill="white"></path>
    <path d="M122.209 133.628L128.517 129.986L128.517 185.345L122.209 188.987L122.209 133.628Z" fill="white"></path>
    <path d="M122.501 188.811L154.042 170.601L154.042 180.629C154.042 183.136 152.281 186.185 150.11 187.439L122.501 203.379L122.501 188.811Z" fill="white"></path>
    <path d="M91.0332 170.601L122.574 188.811L122.574 203.379L94.9649 187.439C92.7935 186.185 91.0332 183.136 91.0332 180.629L91.0332 170.601Z" fill="white"></path>
    <path d="M126.578 111.601L132.886 115.243L132.886 122.527L130.51 121.155C128.338 119.901 126.578 116.852 126.578 114.345L126.578 111.601Z" fill="white"></path>
    <path d="M126.578 111.601L170.735 86.1066L177.043 89.7486L132.886 115.243L126.578 111.601Z" fill="white"></path>
    <path d="M144.934 71.5391L153.618 66.5251C155.79 65.2714 159.31 65.2714 161.482 66.5251L189.091 82.4651L176.474 89.7491L144.934 71.5391Z" fill="white"></path>
    <path d="M132.697 115.234L176.854 89.7399L176.854 97.0239L132.697 122.518L132.697 115.234Z" fill="white"></path>
    <path d="M176.4 89.603L189.017 82.319L189.017 114.199C189.017 116.706 187.256 119.755 185.085 121.009L176.4 126.023L176.4 89.603Z" fill="white"></path>
    <path d="M56.0684 82.1733L83.6773 66.2333C85.8487 64.9797 89.3693 64.9797 91.5408 66.2333L100.225 71.2473L68.6846 89.4573L56.0684 82.1733Z" fill="white"></path>
    <path d="M112.593 114.806L118.901 111.164L118.901 113.908C118.901 116.415 117.141 119.464 114.969 120.718L112.593 122.09L112.593 114.806Z" fill="white"></path>
    <path d="M68.5977 89.3115L112.755 114.806L112.755 122.09L68.5977 96.5955L68.5977 89.3115Z" fill="white"></path>
    <path d="M56.0684 82.0278L68.6846 89.3118L68.6846 125.732L60.0001 120.718C57.8287 119.464 56.0684 116.415 56.0684 113.908L56.0684 82.0278Z" fill="white"></path>
    <path d="M68.7942 89.571C68.6857 89.5083 68.6857 89.4067 68.7942 89.344L74.7092 85.929C74.8178 85.8663 74.9938 85.8663 75.1024 85.929L118.866 111.196C118.975 111.259 118.975 111.36 118.866 111.423L112.951 114.838C112.843 114.901 112.667 114.901 112.558 114.838L68.7942 89.571Z" fill="white"></path>
    <path d="M176.4 133.185C176.4 130.678 178.16 127.629 180.331 126.376L189.016 121.362L189.016 150.498L176.4 157.782L176.4 133.185Z" fill="white"></path>
    <path d="M157.461 173.11C157.461 170.602 159.221 167.554 161.393 166.3L189.001 150.36L189.001 160.388C189.001 162.895 187.241 165.944 185.07 167.198L157.461 183.138L157.461 173.11Z" fill="white"></path>
    <path d="M56.0684 150.498L83.6773 166.438C85.8487 167.691 87.609 170.74 87.609 173.248L87.609 183.276L60.0001 167.336C57.8287 166.082 56.0684 163.033 56.0684 160.526L56.0684 150.498Z" fill="white"></path>
    <path d="M56.0684 121.361L64.7529 126.375C66.9243 127.629 68.6846 130.678 68.6846 133.185L68.6846 157.781L56.0684 150.497L56.0684 121.361Z" fill="white"></path>
    <path d="M90.4491 62.2153L110.635 50.5609L123.251 57.8449L106.997 67.2293C104.826 68.483 101.305 68.483 99.1336 67.2293L90.4491 62.2153Z" fill="white"></path>
    <path d="M109.679 51.144L118.363 46.13C120.535 44.8764 124.056 44.8764 126.227 46.13L155.097 62.7984L146.413 67.8125C144.242 69.0661 140.721 69.0661 138.549 67.8125L109.679 51.144Z" fill="white"></path>
</svg>