<svg width="24" height="24" viewBox="0 0 24 24" fill="none" xmlns="http://www.w3.org/2000/svg">
<path d="M6.64 16.0808C7.90667 15.6541 9.67333 15.4408 11.94 15.4408C14.2067 15.4408 15.98 15.6541 17.26 16.0808C18.0867 16.3741 18.7067 16.7408 19.12 17.1808C19.6267 17.7274 19.88 18.3841 19.88 19.1508C19.88 19.9174 19.62 20.5608 19.1 21.0808C18.6333 21.5608 18.0133 21.9274 17.24 22.1808C16.0133 22.5941 14.2467 22.8008 11.94 22.8008C9.67333 22.8008 7.9 22.5874 6.62 22.1608C5.80667 21.8941 5.18667 21.5274 4.76 21.0608C4.25333 20.5141 4 19.8641 4 19.1108C4 18.3574 4.26 17.7074 4.78 17.1608C5.22 16.6941 5.84 16.3341 6.64 16.0808Z" fill="#D9D9D9"/>
<path d="M6.6 8.14078C6.6 7.18078 6.84 6.29078 7.32 5.47078C7.8 4.65078 8.44 4.00745 9.24 3.54078C10.0667 3.04745 10.9667 2.80078 11.94 2.80078L11.9709 2.80086L12 2.80078C12.5975 2.80078 13.1705 2.90558 13.7016 3.0978C14.0243 3.21234 14.3371 3.36 14.64 3.54078C15.44 4.00745 16.08 4.65078 16.56 5.47078C17.04 6.29078 17.28 7.18411 17.28 8.15078C17.28 9.11745 17.04 10.0108 16.56 10.8308C16.08 11.6508 15.4333 12.3008 14.62 12.7808C13.8067 13.2608 12.9133 13.5008 11.94 13.5008H11.9C10.94 13.5008 10.0533 13.2574 9.24 12.7708C8.42667 12.2841 7.78667 11.6408 7.32 10.8408C6.84 10.0141 6.6 9.11411 6.6 8.14078Z" fill="#D9D9D9"/>
</svg>
