<svg width="20" height="20" viewBox="0 0 20 20" fill="none" xmlns="http://www.w3.org/2000/svg">
<path d="M10 0C4.47695 0 0 4.47695 0 10C0 15.523 4.47695 20 10 20C15.5227 20 20 15.523 20 10C20 4.47695 15.523 0 10 0ZM10 18.0469C5.56289 18.0469 1.95312 14.4371 1.95312 10C1.95312 5.56289 5.56289 1.95312 10 1.95312C14.4371 1.95312 18.0469 5.56289 18.0469 10C18.0469 14.4371 14.4371 18.0469 10 18.0469ZM12.1098 7.93047L12.8141 7.42617C11.5156 6.02031 9.34375 5.76914 7.74805 6.9125C7.12578 7.35781 6.67617 7.95469 6.41328 8.6168C6.31719 8.85898 6.05898 8.99414 5.80664 8.9293L4.93203 8.7043C4.63633 8.62813 4.47344 8.31289 4.57969 8.02656C4.96641 6.98516 5.65703 6.04414 6.62812 5.34922C9.08789 3.58711 12.4609 4.03437 14.3855 6.30039L15.1297 5.76719C15.3066 5.64062 15.5508 5.77773 15.5348 5.99453L15.3449 8.58125C15.3215 8.90078 15.0141 9.12109 14.7039 9.04023L12.1941 8.3875C11.9836 8.33281 11.9324 8.05742 12.1094 7.93047H12.1098ZM4.65508 11.4188L4.46523 14.0055C4.44922 14.2223 4.69375 14.3594 4.87031 14.2328L5.61445 13.6996C7.53867 15.9656 10.9121 16.4133 13.3719 14.6508C14.343 13.9555 15.0336 13.0145 15.4203 11.9734C15.5266 11.6871 15.3633 11.3719 15.068 11.2957L14.1934 11.0707C13.941 11.0059 13.6828 11.141 13.5867 11.3832C13.3238 12.0453 12.8742 12.6422 12.252 13.0875C10.6562 14.2309 8.48438 13.9797 7.18594 12.5738L7.89023 12.0695C8.06719 11.943 8.01602 11.6676 7.80547 11.6125L5.2957 10.9598C4.98555 10.8793 4.67813 11.0992 4.65469 11.4188H4.65508Z" fill="#FFCB2D"/>
</svg>
