<svg width="22" height="17" viewBox="0 0 22 17" fill="none" xmlns="http://www.w3.org/2000/svg">
<path d="M18.6305 15.2569C19.5171 14.7736 20.2175 14.0087 20.6211 13.0831C21.0247 12.1575 21.1086 11.1239 20.8596 10.1453C20.6105 9.1667 20.0426 8.29893 19.2456 7.67893C18.4486 7.05893 17.4677 6.722 16.458 6.72134H15.3126C15.0375 5.65711 14.5247 4.66911 13.8127 3.8316C13.1008 2.99409 12.2082 2.32888 11.2022 1.88597C10.1961 1.44307 9.10278 1.23399 8.00431 1.27446C6.90583 1.31493 5.83082 1.6039 4.86011 2.11964C3.88939 2.63538 3.04821 3.36447 2.39983 4.2521C1.75144 5.13972 1.31272 6.16279 1.11664 7.24438C0.920554 8.32596 0.972218 9.43793 1.26774 10.4967C1.56327 11.5554 2.09497 12.5334 2.82286 13.3571" stroke="#1BB502" stroke-width="2" stroke-linecap="round" stroke-linejoin="round"/>
</svg>
