<svg width="22" height="18" viewBox="0 0 22 18" fill="none" xmlns="http://www.w3.org/2000/svg">
<path d="M1.7844 5.2004L3.13961 7.23872C2.48602 8.54225 2.16606 9.98747 2.20837 11.445C2.25068 12.9026 2.65393 14.3269 3.382 15.5903H18.6528C19.5991 13.9488 19.9912 12.046 19.771 10.1641C19.5508 8.28211 18.73 6.52125 17.4304 5.14248C16.1307 3.76369 14.4214 2.8404 12.5558 2.50949C10.6901 2.17856 8.76757 2.45763 7.0729 3.30531L5.03458 1.95011C7.10992 0.619382 9.57144 0.0230695 12.0257 0.256584C14.4798 0.490087 16.7848 1.53991 18.5718 3.23811C20.3589 4.93633 21.5248 7.18484 21.883 9.62388C22.2413 12.063 21.7712 14.5518 20.5479 16.6921C20.3556 17.0252 20.0795 17.3021 19.7471 17.4954C19.4146 17.6887 19.0374 17.7916 18.6528 17.7939H3.39302C3.00463 17.7954 2.62286 17.6943 2.28616 17.5008C1.94956 17.3073 1.67003 17.0284 1.4759 16.6921C0.460703 14.9335 -0.0487671 12.9287 0.00367928 10.8989C0.0562344 8.86893 0.668613 6.89308 1.77338 5.18938L1.7844 5.2004ZM12.5709 12.7367C12.3662 12.9416 12.1232 13.1041 11.8557 13.215C11.5882 13.3259 11.3015 13.383 11.0118 13.383C10.7223 13.383 10.4356 13.3259 10.1681 13.215C9.90054 13.1041 9.65749 12.9416 9.45278 12.7367L3.21673 3.38244L12.5709 9.61859C12.7758 9.82319 12.9383 10.0663 13.0493 10.3338C13.1601 10.6013 13.2172 10.8881 13.2172 11.1776C13.2172 11.4672 13.1601 11.754 13.0493 12.0215C12.9383 12.289 12.7758 12.5321 12.5709 12.7367Z" fill="#2B61D1"/>
</svg>
