<svg width="19" height="20" viewBox="0 0 19 20" fill="none" xmlns="http://www.w3.org/2000/svg">
<path d="M3.87929 5.56678C3.64013 5.50368 3.44136 5.33761 3.33672 5.11349C3.23209 4.88937 3.23241 4.63036 3.3376 4.4065L5.18307 0.478988C5.32059 0.186307 5.61502 -0.000398601 5.9384 6.39015e-07C6.26178 0.000401348 6.55574 0.187835 6.69254 0.480855L7.50665 2.22463C7.53576 2.21319 7.56581 2.20327 7.59674 2.19499C12.4276 0.900552 17.3932 3.76742 18.6876 8.59831C19.9821 13.4292 17.1152 18.3948 12.2843 19.6892C7.45341 20.9836 2.48785 18.1168 1.19342 13.2859C0.781794 11.7497 0.791054 10.1974 1.15157 8.75422C1.26313 8.30766 1.71557 8.03608 2.16213 8.14763C2.6087 8.25919 2.88027 8.71163 2.76872 9.15819C2.47503 10.3339 2.46693 11.5985 2.80346 12.8545C3.85963 16.7961 7.9112 19.1353 11.8529 18.0791C15.7946 17.023 18.1337 12.9714 17.0776 9.02972C16.0387 5.15248 12.1015 2.82578 8.22157 3.75594L9.04298 5.51534C9.17978 5.80836 9.13473 6.15407 8.9274 6.40224C8.72007 6.65042 8.38789 6.75625 8.07521 6.67376L3.87929 5.56678Z" fill="#F17400"/>
</svg>
