<svg width="22" height="18" viewBox="0 0 22 18" fill="none" xmlns="http://www.w3.org/2000/svg">
<path d="M20.2156 5.2004L18.8604 7.23872C19.514 8.54225 19.8339 9.98747 19.7916 11.445C19.7493 12.9026 19.3461 14.3269 18.618 15.5903H3.34719C2.40094 13.9488 2.00884 12.046 2.22902 10.1641C2.44922 8.28211 3.26997 6.52125 4.56961 5.14248C5.86925 3.76369 7.5786 2.8404 9.44424 2.50949C11.3099 2.17856 13.2324 2.45763 14.9271 3.30531L16.9654 1.95011C14.8901 0.619382 12.4286 0.0230695 9.97432 0.256584C7.52018 0.490087 5.21522 1.53991 3.42816 3.23811C1.64111 4.93633 0.47521 7.18484 0.116973 9.62388C-0.241276 12.063 0.228838 14.5518 1.4521 16.6921C1.64438 17.0252 1.92047 17.3021 2.25292 17.4954C2.58538 17.6887 2.96263 17.7916 3.34719 17.7939H18.607C18.9954 17.7954 19.3771 17.6943 19.7138 17.5008C20.0504 17.3073 20.33 17.0284 20.5241 16.6921C21.5393 14.9335 22.0488 12.9287 21.9963 10.8989C21.9438 8.86893 21.3314 6.89308 20.2266 5.18938L20.2156 5.2004ZM9.42915 12.7367C9.63375 12.9416 9.87681 13.1041 10.1443 13.215C10.4118 13.3259 10.6985 13.383 10.9882 13.383C11.2777 13.383 11.5644 13.3259 11.8319 13.215C12.0995 13.1041 12.3425 12.9416 12.5472 12.7367L18.7833 3.38244L9.42915 9.61859C9.22421 9.82319 9.0617 10.0663 8.95075 10.3338C8.83991 10.6013 8.78284 10.8881 8.78284 11.1776C8.78284 11.4672 8.83991 11.754 8.95075 12.0215C9.0617 12.289 9.22421 12.5321 9.42915 12.7367Z" fill="#EF4343"/>
</svg>
