<svg width="8" height="14" viewBox="0 0 8 14" fill="none" xmlns="http://www.w3.org/2000/svg">
<path d="M0.856271 13.6797C0.706938 13.6797 0.589604 13.6424 0.504271 13.5677C0.397604 13.5037 0.317604 13.4104 0.264271 13.2877C0.210938 13.165 0.197604 13.0397 0.224271 12.9117C0.250937 12.7837 0.312271 12.677 0.408271 12.5917L5.70427 7.27969L0.408271 1.96769C0.269604 1.85035 0.210937 1.70102 0.232271 1.51969C0.232271 1.35969 0.290937 1.21035 0.408271 1.07169C0.536271 0.96502 0.690938 0.906354 0.872271 0.895687C1.0536 0.88502 1.1976 0.943686 1.30427 1.07169L7.06427 6.83169C7.19227 6.93835 7.25627 7.08502 7.25627 7.27169C7.25627 7.45835 7.19227 7.61035 7.06427 7.72769L1.30427 13.4877C1.1976 13.6157 1.04827 13.6797 0.856271 13.6797Z" fill="white"/>
</svg>
