<svg width="14" height="14" viewBox="0 0 14 14" fill="none" xmlns="http://www.w3.org/2000/svg">
<path d="M13.0821 7.90489C13.3221 7.90489 13.5523 7.80954 13.722 7.63983C13.8918 7.47011 13.9871 7.23992 13.9871 6.99991C13.9871 6.7599 13.8918 6.52971 13.722 6.36C13.5523 6.19028 13.3221 6.09494 13.0821 6.09494H11.7375V5.34603H13.0819C13.2018 5.34772 13.3209 5.32556 13.4322 5.28084C13.5434 5.23612 13.6447 5.16974 13.7301 5.08554C13.8155 5.00135 13.8833 4.90103 13.9295 4.7904C13.9758 4.67978 13.9996 4.56106 13.9996 4.44115C13.9996 4.32123 13.9758 4.20252 13.9295 4.09189C13.8833 3.98127 13.8155 3.88094 13.7301 3.79675C13.6447 3.71256 13.5434 3.64617 13.4322 3.60145C13.3209 3.55674 13.2018 3.53457 13.0819 3.53626H11.7375V3.47065C11.7372 3.15023 11.6098 2.84302 11.3832 2.61645C11.1566 2.38987 10.8494 2.26244 10.529 2.26211H10.4634V0.917695C10.4651 0.797793 10.4429 0.678752 10.3982 0.567489C10.3535 0.456226 10.2871 0.354959 10.2029 0.269574C10.1187 0.184189 10.0184 0.116387 9.90775 0.0701094C9.79713 0.0238315 9.67841 0 9.5585 0C9.43858 0 9.31986 0.0238315 9.20924 0.0701094C9.09862 0.116387 8.99829 0.184189 8.9141 0.269574C8.82991 0.354959 8.76352 0.456226 8.7188 0.567489C8.67408 0.678752 8.65192 0.797793 8.65361 0.917695V2.26229H7.90489V0.917874C7.90489 0.677859 7.80954 0.447675 7.63983 0.277959C7.47011 0.108243 7.23992 0.012898 6.99991 0.012898C6.7599 0.012898 6.52971 0.108243 6.36 0.277959C6.19028 0.447675 6.09494 0.677859 6.09494 0.917874V2.26229H5.34603V0.917874C5.34772 0.797972 5.32556 0.678931 5.28084 0.567668C5.23612 0.456405 5.16974 0.355138 5.08554 0.269753C5.00135 0.184368 4.90103 0.116566 4.7904 0.0702881C4.67978 0.0240102 4.56106 0.00017868 4.44115 0.00017868C4.32123 0.00017868 4.20252 0.0240102 4.09189 0.0702881C3.98127 0.116566 3.88094 0.184368 3.79675 0.269753C3.71256 0.355138 3.64617 0.456405 3.60145 0.567668C3.55674 0.678931 3.53457 0.797972 3.53626 0.917874V2.26229H3.47065C3.15023 2.26262 2.84302 2.39005 2.61645 2.61663C2.38987 2.8432 2.26244 3.1504 2.26211 3.47083V3.53644H0.917695C0.797793 3.53475 0.678752 3.55691 0.567489 3.60163C0.456226 3.64635 0.354959 3.71274 0.269574 3.79693C0.184189 3.88112 0.116387 3.98145 0.0701094 4.09207C0.0238315 4.20269 0 4.32141 0 4.44133C0 4.56124 0.0238315 4.67996 0.0701094 4.79058C0.116387 4.9012 0.184189 5.00153 0.269574 5.08572C0.354959 5.16992 0.456226 5.2363 0.567489 5.28102C0.678752 5.32574 0.797793 5.3479 0.917695 5.34621H2.26229V6.09511H0.917874C0.677859 6.09511 0.447675 6.19046 0.277959 6.36018C0.108243 6.52989 0.012898 6.76007 0.012898 7.00009C0.012898 7.2401 0.108243 7.47029 0.277959 7.64C0.447675 7.80972 0.677859 7.90507 0.917874 7.90507H2.26229V8.65397H0.917874C0.797972 8.65228 0.678931 8.67444 0.567668 8.71916C0.456405 8.76388 0.355138 8.83026 0.269753 8.91446C0.184368 8.99865 0.116566 9.09897 0.0702881 9.2096C0.0240102 9.32022 0.00017868 9.43894 0.00017868 9.55885C0.00017868 9.67877 0.0240102 9.79749 0.0702881 9.90811C0.116566 10.0187 0.184368 10.1191 0.269753 10.2032C0.355138 10.2874 0.456405 10.3538 0.567668 10.3985C0.678931 10.4433 0.797972 10.4654 0.917874 10.4637H2.26229V10.5294C2.26262 10.8498 2.39005 11.157 2.61663 11.3836C2.8432 11.6101 3.1504 11.7376 3.47083 11.7379H3.53644V13.0823C3.53475 13.2022 3.55691 13.3212 3.60163 13.4325C3.64635 13.5438 3.71274 13.645 3.79693 13.7304C3.88112 13.8158 3.98145 13.8836 4.09207 13.9299C4.20269 13.9762 4.32141 14 4.44133 14C4.56124 14 4.67996 13.9762 4.79058 13.9299C4.9012 13.8836 5.00153 13.8158 5.08572 13.7304C5.16992 13.645 5.2363 13.5438 5.28102 13.4325C5.32574 13.3212 5.3479 13.2022 5.34621 13.0823V11.7375H6.09511V13.0819C6.09511 13.322 6.19046 13.5521 6.36018 13.7219C6.52989 13.8916 6.76007 13.9869 7.00009 13.9869C7.2401 13.9869 7.47029 13.8916 7.64 13.7219C7.80972 13.5521 7.90507 13.322 7.90507 13.0819V11.7375H8.65397V13.0819C8.65228 13.2018 8.67444 13.3209 8.71916 13.4322C8.76388 13.5434 8.83026 13.6447 8.91446 13.7301C8.99865 13.8155 9.09897 13.8833 9.2096 13.9295C9.32022 13.9758 9.43894 13.9996 9.55885 13.9996C9.67877 13.9996 9.79749 13.9758 9.90811 13.9295C10.0187 13.8833 10.1191 13.8155 10.2032 13.7301C10.2874 13.6447 10.3538 13.5434 10.3985 13.4322C10.4433 13.3209 10.4654 13.2018 10.4637 13.0819V11.7375H10.5294C10.8498 11.7372 11.157 11.6098 11.3836 11.3832C11.6101 11.1566 11.7376 10.8494 11.7379 10.529V10.4634H13.0823C13.2022 10.4651 13.3212 10.4429 13.4325 10.3982C13.5438 10.3535 13.645 10.2871 13.7304 10.2029C13.8158 10.1187 13.8836 10.0184 13.9299 9.90775C13.9762 9.79713 14 9.67841 14 9.5585C14 9.43858 13.9762 9.31986 13.9299 9.20924C13.8836 9.09862 13.8158 8.99829 13.7304 8.9141C13.645 8.82991 13.5438 8.76352 13.4325 8.7188C13.3212 8.67408 13.2022 8.65192 13.0823 8.65361H11.7375V7.90489H13.0821ZM13.0821 6.72066C13.1562 6.72066 13.2272 6.75008 13.2796 6.80245C13.332 6.85482 13.3614 6.92585 13.3614 6.99991C13.3614 7.07397 13.332 7.145 13.2796 7.19737C13.2272 7.24974 13.1562 7.27916 13.0821 7.27916H11.7375V6.72066H13.0821ZM13.0821 4.16198C13.1194 4.16104 13.1564 4.16757 13.1911 4.18117C13.2258 4.19478 13.2575 4.21519 13.2841 4.2412C13.3108 4.26722 13.332 4.29831 13.3465 4.33265C13.361 4.36699 13.3684 4.40388 13.3684 4.44115C13.3684 4.47841 13.361 4.5153 13.3465 4.54964C13.332 4.58398 13.3108 4.61507 13.2841 4.64109C13.2575 4.66711 13.2258 4.68752 13.1911 4.70112C13.1564 4.71473 13.1194 4.72125 13.0821 4.72031H11.7375V4.16198H13.0821ZM9.27951 0.917695C9.27857 0.88044 9.28509 0.843374 9.2987 0.80868C9.3123 0.773986 9.33272 0.742366 9.35873 0.715683C9.38475 0.689 9.41584 0.667795 9.45018 0.653316C9.48452 0.638837 9.52141 0.631378 9.55867 0.631378C9.59594 0.631378 9.63283 0.638837 9.66717 0.653316C9.70151 0.667795 9.7326 0.689 9.75862 0.715683C9.78463 0.742366 9.80505 0.773986 9.81865 0.80868C9.83226 0.843374 9.83878 0.88044 9.83784 0.917695V2.26229H9.27951V0.917695ZM6.72066 0.917695C6.72066 0.843633 6.75008 0.772604 6.80245 0.720234C6.85482 0.667864 6.92585 0.638443 6.99991 0.638443C7.07397 0.638443 7.145 0.667864 7.19737 0.720234C7.24974 0.772604 7.27916 0.843633 7.27916 0.917695V2.26229H6.72066V0.917695ZM4.16198 0.917695C4.16104 0.88044 4.16757 0.843374 4.18117 0.80868C4.19478 0.773986 4.21519 0.742366 4.2412 0.715683C4.26722 0.689 4.29831 0.667795 4.33265 0.653316C4.36699 0.638837 4.40388 0.631378 4.44115 0.631378C4.47841 0.631378 4.5153 0.638837 4.54964 0.653316C4.58398 0.667795 4.61507 0.689 4.64109 0.715683C4.66711 0.742366 4.68752 0.773986 4.70112 0.80868C4.71473 0.843374 4.72125 0.88044 4.72031 0.917695V2.26229H4.16198V0.917695ZM0.917695 4.72031C0.88044 4.72125 0.843374 4.71473 0.80868 4.70112C0.773986 4.68752 0.742366 4.66711 0.715683 4.64109C0.689 4.61507 0.667795 4.58398 0.653316 4.54964C0.638837 4.5153 0.631378 4.47841 0.631378 4.44115C0.631378 4.40388 0.638837 4.36699 0.653316 4.33265C0.667795 4.29831 0.689 4.26722 0.715683 4.2412C0.742366 4.21519 0.773986 4.19478 0.80868 4.18117C0.843374 4.16757 0.88044 4.16104 0.917695 4.16198H2.26229V4.72031H0.917695ZM0.917695 7.27916C0.843633 7.27916 0.772604 7.24974 0.720234 7.19737C0.667864 7.145 0.638443 7.07397 0.638443 6.99991C0.638443 6.92585 0.667864 6.85482 0.720234 6.80245C0.772604 6.75008 0.843633 6.72066 0.917695 6.72066H2.26229V7.27916H0.917695ZM0.917695 9.83784C0.88044 9.83878 0.843374 9.83226 0.80868 9.81865C0.773986 9.80505 0.742366 9.78463 0.715683 9.75862C0.689 9.7326 0.667795 9.70151 0.653316 9.66717C0.638837 9.63283 0.631378 9.59594 0.631378 9.55867C0.631378 9.52141 0.638837 9.48452 0.653316 9.45018C0.667795 9.41584 0.689 9.38475 0.715683 9.35873C0.742366 9.33272 0.773986 9.3123 0.80868 9.2987C0.843374 9.28509 0.88044 9.27857 0.917695 9.27951H2.26229V9.83784H0.917695ZM4.72031 13.0821C4.72125 13.1194 4.71473 13.1564 4.70112 13.1911C4.68752 13.2258 4.66711 13.2575 4.64109 13.2841C4.61507 13.3108 4.58398 13.332 4.54964 13.3465C4.5153 13.361 4.47841 13.3684 4.44115 13.3684C4.40388 13.3684 4.36699 13.361 4.33265 13.3465C4.29831 13.332 4.26722 13.3108 4.2412 13.2841C4.21519 13.2575 4.19478 13.2258 4.18117 13.1911C4.16757 13.1564 4.16104 13.1194 4.16198 13.0821V11.7375H4.72031V13.0821ZM7.27916 13.0821C7.27916 13.1562 7.24974 13.2272 7.19737 13.2796C7.145 13.332 7.07397 13.3614 6.99991 13.3614C6.92585 13.3614 6.85482 13.332 6.80245 13.2796C6.75008 13.2272 6.72066 13.1562 6.72066 13.0821V11.7375H7.27916V13.0821ZM9.83784 13.0821C9.83878 13.1194 9.83226 13.1564 9.81865 13.1911C9.80505 13.2258 9.78463 13.2575 9.75862 13.2841C9.7326 13.3108 9.70151 13.332 9.66717 13.3465C9.63283 13.361 9.59594 13.3684 9.55867 13.3684C9.52141 13.3684 9.48452 13.361 9.45018 13.3465C9.41584 13.332 9.38475 13.3108 9.35873 13.2841C9.33272 13.2575 9.3123 13.2258 9.2987 13.1911C9.28509 13.1564 9.27857 13.1194 9.27951 13.0821V11.7375H9.83784V13.0821ZM11.1118 10.5292C11.1116 10.6836 11.0502 10.8317 10.941 10.941C10.8317 11.0502 10.6836 11.1116 10.5292 11.1118H3.47065C3.31618 11.1116 3.1681 11.0502 3.05887 10.941C2.94965 10.8317 2.8882 10.6836 2.88801 10.5292V3.47065C2.8882 3.31618 2.94965 3.1681 3.05887 3.05887C3.1681 2.94965 3.31618 2.8882 3.47065 2.88801H10.5292C10.6836 2.8882 10.8317 2.94965 10.941 3.05887C11.0502 3.1681 11.1116 3.31618 11.1118 3.47065V10.5292ZM13.0819 9.27951C13.1192 9.27857 13.1563 9.28509 13.191 9.2987C13.2257 9.3123 13.2573 9.33272 13.284 9.35873C13.3106 9.38475 13.3318 9.41584 13.3463 9.45018C13.3608 9.48452 13.3683 9.52141 13.3683 9.55867C13.3683 9.59594 13.3608 9.63283 13.3463 9.66717C13.3318 9.70151 13.3106 9.7326 13.284 9.75862C13.2573 9.78463 13.2257 9.80505 13.191 9.81865C13.1563 9.83226 13.1192 9.83878 13.0819 9.83784H11.7375V9.27951H13.0819Z" fill="#667085"/>
<path d="M9.93394 6.15116C10.0169 6.15116 10.0965 6.1182 10.1552 6.05952C10.2138 6.00085 10.2468 5.92127 10.2468 5.8383C10.2468 5.75532 10.2138 5.67574 10.1552 5.61707C10.0965 5.5584 10.0169 5.52543 9.93394 5.52543H9.47448V5.27514C9.47448 5.076 9.39537 4.88501 9.25456 4.7442C9.11374 4.60338 8.92276 4.52428 8.72361 4.52428H8.47332V4.06482C8.47332 3.98184 8.44036 3.90226 8.38169 3.84359C8.32301 3.78492 8.24344 3.75195 8.16046 3.75195C8.07748 3.75195 7.99791 3.78492 7.93923 3.84359C7.88056 3.90226 7.8476 3.98184 7.8476 4.06482V4.52428H7.31126V4.06482C7.31126 3.98184 7.2783 3.90226 7.21963 3.84359C7.16095 3.78492 7.08138 3.75195 6.9984 3.75195C6.91543 3.75195 6.83585 3.78492 6.77717 3.84359C6.7185 3.90226 6.68554 3.98184 6.68554 4.06482V4.52428H6.1492V4.06482C6.1492 3.98184 6.11624 3.90226 6.05757 3.84359C5.9989 3.78492 5.91932 3.75195 5.83634 3.75195C5.75337 3.75195 5.67379 3.78492 5.61512 3.84359C5.55644 3.90226 5.52348 3.98184 5.52348 4.06482V4.52428H5.27319C5.07405 4.52428 4.88306 4.60338 4.74225 4.7442C4.60143 4.88501 4.52232 5.076 4.52232 5.27514V5.52543H4.06286C3.97989 5.52543 3.90031 5.5584 3.84163 5.61707C3.78296 5.67574 3.75 5.75532 3.75 5.8383C3.75 5.92127 3.78296 6.00085 3.84163 6.05952C3.90031 6.1182 3.97989 6.15116 4.06286 6.15116H4.52232V6.68749H4.06286C3.97989 6.68749 3.90031 6.72045 3.84163 6.77913C3.78296 6.8378 3.75 6.91738 3.75 7.00035C3.75 7.08333 3.78296 7.16291 3.84163 7.22158C3.90031 7.28025 3.97989 7.31322 4.06286 7.31322H4.52232V7.84955H4.06286C3.97989 7.84955 3.90031 7.88251 3.84163 7.94119C3.78296 7.99986 3.75 8.07944 3.75 8.16241C3.75 8.24539 3.78296 8.32497 3.84163 8.38364C3.90031 8.44231 3.97989 8.47528 4.06286 8.47528H4.52232V8.72556C4.52232 8.92471 4.60143 9.11569 4.74225 9.25651C4.88306 9.39732 5.07405 9.47643 5.27319 9.47643H5.52348V9.93589C5.52348 10.0189 5.55644 10.0984 5.61512 10.1571C5.67379 10.2158 5.75337 10.2488 5.83634 10.2488C5.91932 10.2488 5.9989 10.2158 6.05757 10.1571C6.11624 10.0984 6.1492 10.0189 6.1492 9.93589V9.47643H6.68554V9.93589C6.68554 10.0189 6.7185 10.0984 6.77717 10.1571C6.83585 10.2158 6.91543 10.2488 6.9984 10.2488C7.08138 10.2488 7.16095 10.2158 7.21963 10.1571C7.2783 10.0984 7.31126 10.0189 7.31126 9.93589V9.47643H7.8476V9.93589C7.8476 10.0189 7.88056 10.0984 7.93923 10.1571C7.99791 10.2158 8.07748 10.2488 8.16046 10.2488C8.24344 10.2488 8.32301 10.2158 8.38169 10.1571C8.44036 10.0984 8.47332 10.0189 8.47332 9.93589V9.47643H8.72361C8.92276 9.47643 9.11374 9.39732 9.25456 9.25651C9.39537 9.11569 9.47448 8.92471 9.47448 8.72556V8.47528H9.93394C10.0169 8.47528 10.0965 8.44231 10.1552 8.38364C10.2138 8.32497 10.2468 8.24539 10.2468 8.16241C10.2468 8.07944 10.2138 7.99986 10.1552 7.94119C10.0965 7.88251 10.0169 7.84955 9.93394 7.84955H9.47448V7.31322H9.93394C10.0169 7.31322 10.0965 7.28025 10.1552 7.22158C10.2138 7.16291 10.2468 7.08333 10.2468 7.00035C10.2468 6.91738 10.2138 6.8378 10.1552 6.77913C10.0965 6.72045 10.0169 6.68749 9.93394 6.68749H9.47448V6.15116H9.93394ZM8.84876 8.72556C8.84876 8.75876 8.83557 8.79059 8.8121 8.81405C8.78863 8.83752 8.7568 8.85071 8.72361 8.85071H5.27319C5.24 8.85071 5.20817 8.83752 5.1847 8.81405C5.16123 8.79059 5.14805 8.75876 5.14805 8.72556V5.27514C5.14805 5.24195 5.16123 5.21012 5.1847 5.18665C5.20817 5.16318 5.24 5.15 5.27319 5.15H8.72361C8.7568 5.15 8.78863 5.16318 8.8121 5.18665C8.83557 5.21012 8.84876 5.24195 8.84876 5.27514V8.72556Z" fill="#667085"/>
</svg>
