<svg width="24" height="24" viewBox="0 0 24 24" fill="none" xmlns="http://www.w3.org/2000/svg">
<path d="M20.1361 7.74328L13.8044 2.67794C12.5671 1.69194 10.6338 1.68228 9.40609 2.66828L3.07442 7.74328C2.16575 8.46828 1.61475 9.91828 1.80809 11.0589L3.02609 18.3476C3.30642 19.9813 4.82409 21.2669 6.47709 21.2669H16.7238C18.3574 21.2669 19.9041 19.9523 20.1844 18.3379L21.4024 11.0493C21.5764 9.91828 21.0254 8.46828 20.1361 7.74328ZM12.3254 17.4003C12.3254 17.7966 11.9968 18.1253 11.6004 18.1253C11.2041 18.1253 10.8754 17.7966 10.8754 17.4003V14.5003C10.8754 14.1039 11.2041 13.7753 11.6004 13.7753C11.9968 13.7753 12.3254 14.1039 12.3254 14.5003V17.4003Z" fill="white"/>
</svg>
