<svg width="24" height="24" viewBox="0 0 24 24" fill="none" xmlns="http://www.w3.org/2000/svg">
<path d="M8.39159 2.19922C7.79606 2.19922 7.31328 2.682 7.31328 3.27754V5.92858H3.77639C3.56073 5.92858 3.37741 6.00047 3.22645 6.14425C3.07548 6.28802 3 6.46774 3 6.6834C3 6.88469 3.07548 7.06082 3.22645 7.21178C3.37741 7.36275 3.56073 7.43823 3.77639 7.43823H4.59591V12.226C4.59591 13.3474 4.87628 14.3826 5.437 15.3315C5.98335 16.2661 6.72379 17.0065 7.65834 17.5529C8.54613 18.0775 9.50943 18.3567 10.5482 18.3905V19.4523C10.5482 20.0479 11.031 20.5306 11.6266 20.5306C12.2221 20.5306 12.7049 20.0479 12.7049 19.4523V18.3939H12.899C14.006 18.3939 15.0412 18.1136 16.0045 17.5529C16.9247 17.0065 17.6579 16.2661 18.2043 15.3315C18.765 14.3826 19.0454 13.3474 19.0454 12.226V7.43823H19.8865C20.0878 7.43823 20.2639 7.36275 20.4149 7.21178C20.5658 7.06082 20.6413 6.8811 20.6413 6.67262C20.6413 6.46415 20.5658 6.28802 20.4149 6.14425C20.2639 6.00047 20.0878 5.92858 19.8865 5.92858H15.9398V3.27754C15.9398 2.682 15.457 2.19922 14.8615 2.19922C14.266 2.19922 13.7832 2.682 13.7832 3.27754V5.92858H9.46991V3.27754C9.46991 2.682 8.98713 2.19922 8.39159 2.19922Z" fill="#D9D9D9"/>
</svg>
