<svg width="19" height="18" viewBox="0 0 19 18" fill="none" xmlns="http://www.w3.org/2000/svg">
<path d="M9.55654 0.750037C11.1854 0.761213 12.7745 1.25432 14.1235 2.16722C15.4729 3.08036 16.5217 4.37263 17.1377 5.88105C17.7536 7.38948 17.9091 9.04651 17.5846 10.6432C17.26 12.2399 16.4699 13.7047 15.314 14.853C14.158 16.0012 12.688 16.7815 11.0892 17.0954C9.49038 17.4092 7.83443 17.2427 6.33018 16.6166C4.82592 15.9906 3.54071 14.9332 2.63661 13.5777C1.73276 12.2226 1.25028 10.6302 1.25 9.00133C1.25773 6.80575 2.13712 4.7031 3.69483 3.15576C5.25253 1.60842 7.36099 0.743094 9.55654 0.750037Z" fill="#303B52" stroke="#303B52" stroke-width="1.49999"/>
<path d="M13.07 10.54C13.07 8.84803 11.606 8.40403 10.274 8.09203V6.05205C10.874 6.12405 11.498 6.32804 12.11 6.67604L12.71 5.20005C12.05 4.78005 11.174 4.54006 10.274 4.46806V3.16006H9.07398V4.49206C7.17799 4.70805 6.254 5.80005 6.254 7.07204C6.254 8.78803 7.74199 9.23202 9.07398 9.55602V11.56C8.20998 11.476 7.34599 11.152 6.74599 10.708L6.086 12.172C6.74599 12.688 7.88599 13.06 9.07398 13.132V14.44H10.274V13.096C12.158 12.868 13.07 11.788 13.07 10.54ZM8.18598 6.97604C8.18598 6.58004 8.43798 6.23204 9.07398 6.08805V7.79203C8.54598 7.62404 8.18598 7.39604 8.18598 6.97604ZM10.274 11.512V9.85602C10.79 10.036 11.138 10.264 11.138 10.684C11.138 11.068 10.874 11.38 10.274 11.512Z" fill="white"/>
</svg>
