<svg width="28" height="25" viewBox="0 0 28 25" fill="none" xmlns="http://www.w3.org/2000/svg">
<path fill-rule="evenodd" clip-rule="evenodd" d="M17.0643 2.42562C15.7199 0.0820843 12.2788 0.0820856 10.9344 2.42562L1.12274 19.5293C-0.195834 21.8279 1.49813 24.668 4.18767 24.668H23.811C26.5006 24.668 28.1945 21.8279 26.876 19.5293L17.0643 2.42562ZM13.9993 6.66797C13.263 6.66797 12.666 7.26492 12.666 8.0013V16.0013C12.666 16.7377 13.263 17.3346 13.9993 17.3346C14.7357 17.3346 15.3327 16.7377 15.3327 16.0013V8.0013C15.3327 7.26492 14.7357 6.66797 13.9993 6.66797ZM13.9993 18.668C13.263 18.668 12.666 19.2649 12.666 20.0013C12.666 20.7377 13.263 21.3346 13.9993 21.3346C14.7357 21.3346 15.3327 20.7377 15.3327 20.0013C15.3327 19.2649 14.7357 18.668 13.9993 18.668Z" fill="#EF4343"/>
</svg>
