<svg width="18" height="18" viewBox="0 0 18 18" fill="none" xmlns="http://www.w3.org/2000/svg">
<path d="M15.857 0H2.14298C1.57481 0.000609555 1.03009 0.226583 0.628337 0.628337C0.226583 1.03009 0.000609555 1.57481 0 2.14298V15.857C0.000609555 16.4252 0.226583 16.9699 0.628337 17.3717C1.03009 17.7734 1.57481 17.9994 2.14298 18H15.857C16.4252 17.9994 16.9699 17.7734 17.3717 17.3717C17.7734 16.9699 17.9994 16.4252 18 15.857V2.14298C17.9994 1.57481 17.7734 1.03009 17.3717 0.628337C16.9699 0.226583 16.4252 0.000609555 15.857 0ZM17.194 15.857C17.1937 16.2115 17.0527 16.5514 16.802 16.802C16.5514 17.0527 16.2115 17.1937 15.857 17.194H2.14298C1.7885 17.1937 1.44864 17.0527 1.19798 16.802C0.947323 16.5514 0.806343 16.2115 0.805977 15.857V2.14298C0.806343 1.7885 0.947323 1.44864 1.19798 1.19798C1.44864 0.947323 1.7885 0.806343 2.14298 0.805977H15.857C16.2115 0.806343 16.5514 0.947323 16.802 1.19798C17.0527 1.44864 17.1937 1.7885 17.194 2.14298V15.857Z" fill="#667085"/>
<path d="M8.99702 1.58203C7.53048 1.58203 6.09686 2.01691 4.87748 2.83168C3.65809 3.64645 2.70769 4.80451 2.14647 6.15943C1.58524 7.51434 1.4384 9.00525 1.72451 10.4436C2.01062 11.882 2.71683 13.2032 3.75383 14.2402C4.79084 15.2772 6.11206 15.9834 7.55043 16.2695C8.9888 16.5556 10.4797 16.4088 11.8346 15.8476C13.1895 15.2864 14.3476 14.336 15.1624 13.1166C15.9771 11.8972 16.412 10.4636 16.412 8.99702C16.41 7.03106 15.6281 5.1462 14.238 3.75605C12.8478 2.36591 10.963 1.58404 8.99702 1.58203ZM8.99702 15.606C7.68988 15.606 6.4121 15.2184 5.32525 14.4922C4.23841 13.766 3.39131 12.7338 2.89109 11.5262C2.39087 10.3185 2.25999 8.98969 2.515 7.70767C2.77001 6.42564 3.39946 5.24803 4.32375 4.32374C5.24803 3.39946 6.42565 2.77001 7.70767 2.515C8.98969 2.25999 10.3185 2.39087 11.5262 2.89109C12.7338 3.39131 13.766 4.2384 14.4922 5.32525C15.2184 6.4121 15.606 7.68988 15.606 8.99702C15.6043 10.7493 14.9074 12.4293 13.6683 13.6683C12.4293 14.9074 10.7493 15.6043 8.99702 15.606Z" fill="#667085"/>
<path d="M10.191 7.79737C9.97313 7.58166 9.70077 7.42916 9.40299 7.35616V3.47135C9.40299 3.36447 9.36053 3.26197 9.28496 3.18639C9.20938 3.11082 9.10688 3.06836 9 3.06836C8.43899 3.06825 7.89397 3.25524 7.4512 3.59975C7.00843 3.94425 6.6932 4.42659 6.55541 4.97041C6.41761 5.51423 6.46513 6.08848 6.69043 6.60226C6.91573 7.11604 7.30595 7.54 7.79932 7.80704C7.5836 8.02488 7.43117 8.29726 7.35834 8.59506H3.4733C3.36642 8.59506 3.26392 8.63752 3.18834 8.71309C3.11277 8.78867 3.07031 8.89117 3.07031 8.99805C3.0702 9.55906 3.25719 10.1041 3.6017 10.5469C3.9462 10.9896 4.42854 11.3049 4.97236 11.4426C5.51618 11.5804 6.09043 11.5329 6.60421 11.3076C7.11799 11.0823 7.54195 10.6921 7.809 10.1987C8.02687 10.4144 8.29924 10.5669 8.59701 10.6399V14.5247C8.59701 14.6316 8.63947 14.7341 8.71504 14.8097C8.79062 14.8853 8.89312 14.9277 9 14.9277C9.56101 14.9278 10.106 14.7409 10.5488 14.3963C10.9916 14.0518 11.3068 13.5695 11.4446 13.0257C11.5824 12.4819 11.5349 11.9076 11.3096 11.3938C11.0843 10.8801 10.694 10.4561 10.2007 10.1891C10.4164 9.97122 10.5688 9.69883 10.6417 9.40104H14.5267C14.6336 9.40104 14.7361 9.35858 14.8117 9.283C14.8872 9.20743 14.9297 9.10493 14.9297 8.99805C14.9298 8.43704 14.7428 7.89202 14.3983 7.44924C14.0538 7.00647 13.5715 6.69124 13.0276 6.55345C12.4838 6.41566 11.9096 6.46317 11.3958 6.68848C10.882 6.91378 10.458 7.304 10.191 7.79737ZM7.28442 5.58992C7.28487 5.20508 7.41448 4.83154 7.65247 4.52912C7.89046 4.2267 8.22307 4.01291 8.59701 3.922V7.25783C8.22305 7.16696 7.89042 6.95318 7.65242 6.65075C7.41442 6.34833 7.28483 5.97476 7.28442 5.58992ZM5.59187 10.7139C5.20707 10.7134 4.83355 10.5838 4.53117 10.3458C4.22879 10.1078 4.01505 9.77519 3.92419 9.40127H7.25978C7.16887 9.77521 6.95508 10.1078 6.65267 10.3458C6.35025 10.5838 5.9767 10.7134 5.59187 10.7139ZM10.7156 12.4062C10.7151 12.791 10.5855 13.1646 10.3475 13.467C10.1095 13.7694 9.77693 13.9832 9.40299 14.0741V10.7383C9.77695 10.8291 10.1096 11.0429 10.3476 11.3453C10.5856 11.6478 10.7152 12.0213 10.7156 12.4062ZM8.11366 8.99805C8.11366 8.82275 8.16564 8.65138 8.26303 8.50562C8.36043 8.35986 8.49885 8.24626 8.66081 8.17917C8.82277 8.11209 9.00098 8.09453 9.17292 8.12873C9.34485 8.16293 9.50278 8.24735 9.62674 8.37131C9.7507 8.49527 9.83511 8.6532 9.86931 8.82513C9.90351 8.99706 9.88596 9.17528 9.81888 9.33724C9.75179 9.4992 9.63819 9.63762 9.49243 9.73502C9.34667 9.83241 9.1753 9.88439 9 9.88439C8.765 9.88415 8.5397 9.79069 8.37353 9.62452C8.20736 9.45835 8.1139 9.23305 8.11366 8.99805ZM14.0758 8.59506H10.7402C10.8307 8.22087 11.0443 7.88796 11.3468 7.64987C11.6493 7.41177 12.0231 7.28231 12.408 7.28231C12.793 7.28231 13.1668 7.41177 13.4692 7.64987C13.7717 7.88796 13.9854 8.22087 14.0758 8.59506Z" fill="#667085"/>
<path d="M2.23367 2.83935C2.35804 2.83945 2.47964 2.80265 2.58309 2.73361C2.68653 2.66458 2.76718 2.56642 2.81483 2.45154C2.86247 2.33666 2.87498 2.21023 2.85075 2.08825C2.82653 1.96626 2.76667 1.8542 2.67874 1.76624C2.59082 1.67829 2.47878 1.61839 2.35681 1.59412C2.23483 1.56985 2.10839 1.5823 1.9935 1.62991C1.8786 1.67751 1.78041 1.75812 1.71134 1.86155C1.64227 1.96497 1.60542 2.08656 1.60547 2.21092C1.60571 2.37748 1.67197 2.53715 1.78972 2.65494C1.90747 2.77274 2.06711 2.83905 2.23367 2.83935Z" fill="#667085"/>
<path d="M15.7654 2.86865C15.8897 2.86865 16.0113 2.83178 16.1146 2.7627C16.218 2.69363 16.2986 2.59544 16.3462 2.48057C16.3938 2.3657 16.4062 2.23929 16.382 2.11734C16.3577 1.9954 16.2978 1.88338 16.2099 1.79546C16.122 1.70754 16.01 1.64767 15.888 1.62341C15.7661 1.59915 15.6397 1.6116 15.5248 1.65918C15.4099 1.70676 15.3117 1.78734 15.2427 1.89072C15.1736 1.99411 15.1367 2.11565 15.1367 2.23999C15.1368 2.40668 15.2031 2.56652 15.321 2.68439C15.4389 2.80226 15.5987 2.86853 15.7654 2.86865Z" fill="#667085"/>
<path d="M2.23413 15.1328C2.10979 15.1328 1.98825 15.1697 1.88487 15.2388C1.78148 15.3078 1.70091 15.406 1.65332 15.5209C1.60574 15.6358 1.59329 15.7622 1.61755 15.8841C1.64181 16.0061 1.70168 16.1181 1.7896 16.206C1.87752 16.2939 1.98954 16.3538 2.11149 16.3781C2.23343 16.4023 2.35984 16.3899 2.47471 16.3423C2.58958 16.2947 2.68777 16.2141 2.75684 16.1107C2.82592 16.0074 2.86279 15.8858 2.86279 15.7615C2.86267 15.5948 2.7964 15.4349 2.67853 15.3171C2.56066 15.1992 2.40083 15.1329 2.23413 15.1328Z" fill="#667085"/>
<path d="M15.7658 15.1582C15.6415 15.1581 15.5199 15.1949 15.4164 15.2639C15.313 15.333 15.2323 15.4311 15.1847 15.546C15.137 15.6609 15.1245 15.7873 15.1488 15.9093C15.173 16.0313 15.2328 16.1434 15.3208 16.2313C15.4087 16.3193 15.5207 16.3792 15.6427 16.4034C15.7647 16.4277 15.8911 16.4153 16.006 16.3677C16.1209 16.32 16.2191 16.2394 16.2882 16.136C16.3572 16.0326 16.3941 15.911 16.394 15.7866C16.3938 15.6201 16.3275 15.4604 16.2098 15.3426C16.092 15.2248 15.9324 15.1585 15.7658 15.1582Z" fill="#667085"/>
</svg>
