<svg width="22" height="16" viewBox="0 0 22 16" fill="none" xmlns="http://www.w3.org/2000/svg">
<path d="M21.5075 2.03116H4.19814C4.06754 2.03122 3.9423 2.07437 3.84995 2.15113C3.75759 2.22788 3.70568 2.33197 3.7056 2.44052V3.37619H3.09598V1.07537C3.0959 0.966823 3.04398 0.862738 2.95163 0.785982C2.85928 0.709226 2.73404 0.666078 2.60343 0.666016H0.492542C0.361911 0.666016 0.236632 0.709144 0.144262 0.785913C0.0518928 0.862682 0 0.966804 0 1.07537C0 1.18394 0.0518928 1.28806 0.144262 1.36483C0.236632 1.4416 0.361911 1.48473 0.492542 1.48473H2.11089V14.0578C2.11089 14.1664 2.16278 14.2705 2.25515 14.3473C2.34752 14.4241 2.4728 14.4672 2.60343 14.4672C2.73406 14.4672 2.85934 14.4241 2.95171 14.3473C3.04408 14.2705 3.09598 14.1664 3.09598 14.0578V11.7582H3.7056V12.6939C3.70568 12.8024 3.75759 12.9065 3.84995 12.9832C3.9423 13.06 4.06754 13.1031 4.19814 13.1032H9.962V14.9233C9.96208 15.0319 10.014 15.136 10.1063 15.2127C10.1987 15.2895 10.3239 15.3326 10.4545 15.3327H19.1796C19.3102 15.3327 19.4355 15.2896 19.5278 15.2128C19.6202 15.136 19.6721 15.0319 19.6721 14.9233V13.1032H21.5075C21.6381 13.1032 21.7634 13.0601 21.8557 12.9833C21.9481 12.9065 22 12.8024 22 12.6939V2.44052C22 2.33195 21.9481 2.22783 21.8557 2.15106C21.7634 2.07429 21.6381 2.03116 21.5075 2.03116ZM3.09598 10.9395V4.1949H3.7056V10.9395H3.09598ZM18.6884 14.5135H17.2812V14.0826C17.2812 13.9741 17.2293 13.8699 17.1369 13.7932C17.0445 13.7164 16.9193 13.6733 16.7886 13.6733C16.658 13.6733 16.5327 13.7164 16.4403 13.7932C16.348 13.8699 16.2961 13.9741 16.2961 14.0826V14.5135H15.311V14.0826C15.311 13.9741 15.2591 13.8699 15.1667 13.7932C15.0744 13.7164 14.9491 13.6733 14.8185 13.6733C14.6878 13.6733 14.5626 13.7164 14.4702 13.7932C14.3778 13.8699 14.3259 13.9741 14.3259 14.0826V14.5135H13.3408V14.0826C13.3408 13.9741 13.2889 13.8699 13.1966 13.7932C13.1042 13.7164 12.9789 13.6733 12.8483 13.6733C12.7177 13.6733 12.5924 13.7164 12.5 13.7932C12.4076 13.8699 12.3558 13.9741 12.3558 14.0826V14.5135H10.9485V13.1032H18.6884V14.5135ZM21.0163 12.2845H4.69209V2.84987H21.0163V12.2845Z" fill="#667085"/>
<path d="M15.2741 10.4431C15.9811 10.4432 16.6661 10.1981 17.2126 9.74965C17.7591 9.3012 18.1332 8.67715 18.2711 7.98381C18.4091 7.29047 18.3023 6.57076 17.9691 5.94729C17.6359 5.32383 17.0968 4.8352 16.4437 4.56465C15.7906 4.29411 15.0639 4.25839 14.3874 4.46359C13.7109 4.66879 13.1265 5.1022 12.7337 5.68999C12.341 6.27777 12.1642 6.98355 12.2335 7.68707C12.3028 8.3906 12.6138 9.04833 13.1137 9.5482C13.3968 9.83279 13.7335 10.0584 14.1043 10.212C14.4751 10.3656 14.8727 10.4442 15.2741 10.4431ZM13.8746 9.28121L15.2741 7.88144L16.6739 9.28121C16.2693 9.58219 15.7785 9.74474 15.2742 9.74474C14.77 9.74474 14.2791 9.58219 13.8746 9.28121ZM17.167 8.78715L15.7676 7.38758L17.167 5.98821C17.4658 6.39358 17.6271 6.88398 17.6272 7.38762C17.6273 7.89126 17.4661 8.38169 17.1674 8.78715H17.167ZM16.6735 5.49475L15.2737 6.89432L13.8742 5.49475C14.2787 5.19377 14.7696 5.03122 15.2738 5.03122C15.7781 5.03122 16.2689 5.19377 16.6735 5.49475ZM13.3811 5.98881L14.7805 7.38818L13.3811 8.78775C13.0821 8.38228 12.9209 7.89175 12.9209 7.38798C12.9209 6.88422 13.0821 6.39368 13.3811 5.98821V5.98881Z" fill="#667085"/>
<path d="M6.60192 10.7856H9.69789C9.8285 10.7855 9.95374 10.7324 10.0461 10.6378C10.1384 10.5432 10.1904 10.415 10.1904 10.2813V8.50427C10.1904 8.37055 10.1384 8.24233 10.0461 8.14778C9.95374 8.05323 9.8285 8.00008 9.69789 8H6.60192C6.47131 8.00008 6.34607 8.05323 6.25372 8.14778C6.16137 8.24233 6.10945 8.37055 6.10938 8.50427V10.2813C6.10945 10.415 6.16137 10.5432 6.25372 10.6378C6.34607 10.7324 6.47131 10.7855 6.60192 10.7856ZM7.09446 9.00854H9.20535V9.77704H7.09446V9.00854Z" fill="#667085"/>
</svg>
