<svg width="14" height="14" viewBox="0 0 14 14" fill="none" xmlns="http://www.w3.org/2000/svg">
<path d="M13.9379 10.1378L12.3618 1.50886C12.3037 1.19084 12.1388 0.90363 11.8957 0.696928C11.6526 0.490226 11.3465 0.377039 11.0305 0.376953H2.96928C2.65328 0.377039 2.34724 0.490226 2.10413 0.696928C1.86103 0.90363 1.69615 1.19084 1.63804 1.50886L0.0619684 10.1379C0.0212132 10.2568 0.000265005 10.3818 0 10.5078V12.4975C0.000331818 12.7964 0.116466 13.083 0.322924 13.2943C0.529382 13.5057 0.809305 13.6246 1.10128 13.625H12.8987C13.1907 13.6246 13.4706 13.5057 13.6771 13.2943C13.8835 13.083 13.9997 12.7964 14 12.4975V10.5078C13.9998 10.3817 13.9788 10.2566 13.9379 10.1378ZM2.25414 1.62657C2.28542 1.45579 2.37402 1.30156 2.5046 1.19056C2.63519 1.07957 2.79956 1.01878 2.96928 1.01873H11.0313C11.201 1.01878 11.3653 1.07957 11.4959 1.19056C11.6265 1.30156 11.7151 1.45579 11.7464 1.62657L13.1684 9.41585C13.0803 9.39261 12.9897 9.38066 12.8987 9.38028H1.10182C1.01082 9.38066 0.920217 9.39261 0.832095 9.41585L2.25414 1.62657ZM4.91072 10.0221H9.08982V10.7751H4.91072V10.0221ZM13.3732 12.4975C13.373 12.6262 13.323 12.7497 13.234 12.8408C13.1451 12.9318 13.0245 12.983 12.8987 12.9832H1.10182C0.976034 12.983 0.855442 12.9318 0.7665 12.8408C0.677557 12.7497 0.627526 12.6262 0.627384 12.4975V10.5078C0.627526 10.379 0.677557 10.2555 0.7665 10.1645C0.855442 10.0734 0.976034 10.0222 1.10182 10.0221H4.28387V11.096C4.28387 11.1811 4.31689 11.2627 4.37567 11.3229C4.43445 11.3831 4.51417 11.4169 4.5973 11.4169H9.40324C9.48637 11.4169 9.56609 11.3831 9.62486 11.3229C9.68364 11.2627 9.71666 11.1811 9.71666 11.096V10.0221H12.8987C13.0245 10.0222 13.1451 10.0734 13.234 10.1645C13.323 10.2555 13.373 10.379 13.3732 10.5078V12.4975Z" fill="#667085"/>
</svg>
