<svg width="26" height="26" viewBox="0 0 26 26" fill="none" xmlns="http://www.w3.org/2000/svg">
<g clip-path="url(#clip0_91_11961)">
<rect width="26" height="26" rx="13" fill="#2B61D1"/>
<path d="M13 7.6747C14.7229 7.6747 14.9578 7.6747 15.6627 7.6747C16.2892 7.6747 16.6024 7.83133 16.8373 7.90964C17.1506 8.06627 17.3855 8.14458 17.6205 8.37952C17.8554 8.61446 18.012 8.8494 18.0904 9.16265C18.1687 9.39759 18.247 9.71084 18.3253 10.3374C18.3253 11.0422 18.3253 11.1988 18.3253 13C18.3253 14.8012 18.3253 14.9578 18.3253 15.6627C18.3253 16.2892 18.1687 16.6024 18.0904 16.8373C17.9337 17.1506 17.8554 17.3855 17.6205 17.6205C17.3855 17.8554 17.1506 18.012 16.8373 18.0904C16.6024 18.1687 16.2892 18.247 15.6627 18.3253C14.9578 18.3253 14.8012 18.3253 13 18.3253C11.1988 18.3253 11.0422 18.3253 10.3374 18.3253C9.71084 18.3253 9.39759 18.1687 9.16265 18.0904C8.8494 17.9337 8.61446 17.8554 8.37952 17.6205C8.14458 17.3855 7.98795 17.1506 7.90964 16.8373C7.83133 16.6024 7.75301 16.2892 7.6747 15.6627C7.6747 14.9578 7.6747 14.8012 7.6747 13C7.6747 11.1988 7.6747 11.0422 7.6747 10.3374C7.6747 9.71084 7.83133 9.39759 7.90964 9.16265C8.06627 8.8494 8.14458 8.61446 8.37952 8.37952C8.61446 8.14458 8.8494 7.98795 9.16265 7.90964C9.39759 7.83133 9.71084 7.75301 10.3374 7.6747C11.0422 7.6747 11.2771 7.6747 13 7.6747ZM13 6.5C11.1988 6.5 11.0422 6.5 10.3374 6.5C9.63253 6.5 9.16265 6.65663 8.77109 6.81325C8.37952 6.96988 7.98795 7.20482 7.59639 7.59639C7.20482 7.98795 7.04819 8.30121 6.81325 8.77109C6.65663 9.16265 6.57831 9.63253 6.5 10.3374C6.5 11.0422 6.5 11.2771 6.5 13C6.5 14.8012 6.5 14.9578 6.5 15.6627C6.5 16.3675 6.65663 16.8373 6.81325 17.2289C6.96988 17.6205 7.20482 18.012 7.59639 18.4036C7.98795 18.7952 8.30121 18.9518 8.77109 19.1867C9.16265 19.3434 9.63253 19.4217 10.3374 19.5C11.0422 19.5 11.2771 19.5 13 19.5C14.7229 19.5 14.9578 19.5 15.6627 19.5C16.3675 19.5 16.8373 19.3434 17.2289 19.1867C17.6205 19.0301 18.012 18.7952 18.4036 18.4036C18.7952 18.012 18.9518 17.6988 19.1867 17.2289C19.3434 16.8373 19.4217 16.3675 19.5 15.6627C19.5 14.9578 19.5 14.7229 19.5 13C19.5 11.2771 19.5 11.0422 19.5 10.3374C19.5 9.63253 19.3434 9.16265 19.1867 8.77109C19.0301 8.37952 18.7952 7.98795 18.4036 7.59639C18.012 7.20482 17.6988 7.04819 17.2289 6.81325C16.8373 6.65663 16.3675 6.57831 15.6627 6.5C14.9578 6.5 14.8012 6.5 13 6.5Z" fill="white"/>
<path d="M13 9.63253C11.1205 9.63253 9.63253 11.1205 9.63253 13C9.63253 14.8795 11.1205 16.3675 13 16.3675C14.8795 16.3675 16.3675 14.8795 16.3675 13C16.3675 11.1205 14.8795 9.63253 13 9.63253ZM13 15.1928C11.8253 15.1928 10.8072 14.253 10.8072 13C10.8072 11.8253 11.747 10.8072 13 10.8072C14.1747 10.8072 15.1928 11.747 15.1928 13C15.1928 14.1747 14.1747 15.1928 13 15.1928Z" fill="white"/>
<path d="M16.4458 10.3374C16.8783 10.3374 17.2289 9.98673 17.2289 9.55422C17.2289 9.12171 16.8783 8.77109 16.4458 8.77109C16.0133 8.77109 15.6627 9.12171 15.6627 9.55422C15.6627 9.98673 16.0133 10.3374 16.4458 10.3374Z" fill="white"/>
</g>
<defs>
<clipPath id="clip0_91_11961">
<rect width="26" height="26" fill="white"/>
</clipPath>
</defs>
</svg>
