<?xml version="1.0" encoding="UTF-8"?><svg id="a" xmlns="http://www.w3.org/2000/svg" viewBox="0 0 27.61 28.04"><path d="M13.26,0h1.08c.02,.05,.07,.03,.11,.04,.71,.03,1.42,.11,2.12,.26,3.29,.71,5.97,2.39,8.05,5.03,1.62,2.05,2.57,4.39,2.89,6.99,.03,.26,.02,.52,.1,.77v1.8s-.03,.05-.03,.08c-.02,.47-.08,.94-.16,1.41-.53,3.06-1.88,5.71-4.14,7.84-3.25,3.07-7.13,4.29-11.55,3.67-2.83-.4-5.31-1.62-7.35-3.62C.77,20.73-.6,16.42,.24,11.45,.79,8.21,2.38,5.51,4.87,3.35,7.24,1.3,10.02,.2,13.16,.04c.04,0,.09,.02,.11-.04Zm8.18,16.13c0-.77,0-1.53,0-2.3,0-.14-.03-.22-.16-.3-1.31-.77-2.62-1.54-3.93-2.32-.09-.06-.16-.06-.26,0-1.32,.79-2.65,1.57-3.97,2.35-.09,.05-.13,.11-.13,.22,0,1.56,0,3.13,0,4.69,0,.11,.03,.17,.13,.23,1.33,.78,2.65,1.56,3.97,2.34,.1,.06,.16,.06,.26,0,1.32-.78,2.64-1.56,3.96-2.34,.1-.06,.14-.12,.14-.24,0-.78,0-1.56,0-2.34Zm.01-4.5c0-.6,0-1.16,0-1.72,0-.12-.04-.18-.14-.24-2.44-1.44-4.89-2.88-7.33-4.32-.11-.06-.18-.06-.29,0-2.44,1.44-4.87,2.88-7.31,4.31-.11,.06-.14,.13-.14,.25,0,1.2,0,2.41,0,3.61,0,.06-.02,.12,.02,.17,.07,0,.11-.05,.16-.08,.71-.42,1.41-.83,2.12-1.25,.09-.06,.16-.06,.26,0,.74,.44,1.48,.88,2.23,1.32,.05,.03,.1,.09,.18,.06,0-.31,0-.62,0-.94,0-.1,.03-.15,.11-.2,1.93-1.14,3.86-2.27,5.78-3.41,.09-.05,.15-.05,.24,0,.84,.5,1.69,1,2.53,1.5,.51,.3,1.03,.61,1.58,.93Zm-10.35,5.53c0-.43,0-.86,0-1.29,0-.09-.02-.15-.11-.2-.74-.43-1.48-.87-2.21-1.3-.08-.05-.14-.05-.23,0-.73,.44-1.46,.87-2.2,1.3-.09,.05-.13,.1-.13,.21,0,.87,0,1.74,0,2.61,0,.1,.04,.16,.12,.21,.73,.43,1.46,.85,2.18,1.29,.09,.06,.16,.06,.26,0,.72-.43,1.45-.86,2.18-1.29,.09-.06,.13-.12,.12-.23,0-.43,0-.86,0-1.29Zm-.65,3.94c1.13,.66,2.22,1.31,3.31,1.95,.05,.03,.09,.04,.15,0,.5-.3,.99-.59,1.49-.88-.01-.02-.02-.02-.02-.02-1.09-.65-2.18-1.29-3.27-1.94-.04-.02-.08-.04-.13-.01-.5,.3-1,.59-1.53,.9Z" fill="#2b61d0"/></svg>