<svg width="70" height="82" viewBox="0 0 70 82" fill="none" xmlns="http://www.w3.org/2000/svg">
<path d="M42.3588 77.0127L35.1606 81.1698L19.6973 72.2548L26.7197 68.1999L26.8955 68.0977L27.1653 68.253L42.3588 77.0127Z" fill="#2B61D1"/>
<path d="M70 20.8528V29.2201L54.7779 20.4318L50.6495 18.0488L46.521 20.4318L27.1746 31.6072L23.0461 33.9903V38.924L15.6027 34.6279L11.4742 32.2449L7.34576 34.6279L0.34375 38.6665V20.8528L35.1698 0.746094L70 20.8528Z" fill="#2B61D1"/>
<path d="M69.9978 38.7457V61.1047L50.6513 72.2638H50.6268L31.3008 61.1047V38.7457L50.6513 27.5703L69.9978 38.7457Z" fill="#2B61D1"/>
<path d="M22.6006 48.195V61.0422L11.4701 67.472L0.34375 61.0463V48.1991L11.4742 41.7734L22.6006 48.195Z" fill="#2B61D1"/>
</svg>
