<svg width="22" height="22" viewBox="0 0 22 22" fill="none" xmlns="http://www.w3.org/2000/svg">
<path d="M18.2417 4.41833C14.3934 0.329825 9.66945 0.82214 6.73539 1.8121C6.21053 1.98918 6.23205 2.65636 6.76247 2.816C8.76459 3.41858 11.1663 4.04882 14.5039 7.59375C17.8763 11.1757 18.7336 14.1189 19.3468 16.2694C19.4963 16.7936 20.1552 16.8556 20.3663 16.353C21.5095 13.6306 22.3919 8.82744 18.2417 4.41833Z" fill="#D9D9D9"/>
<path d="M2.11566 19.0778C1.38732 18.3186 1.41235 17.1127 2.17158 16.3843L11.5724 7.36592C11.952 7.00174 12.555 7.01426 12.9192 7.39388L14.9145 9.47385C15.2787 9.85346 15.2662 10.4564 14.8866 10.8206L5.48573 19.839C4.7265 20.5674 3.52058 20.5423 2.79223 19.7831L2.11566 19.0778Z" fill="#D9D9D9"/>
</svg>
