<svg width="24" height="24" viewBox="0 0 24 24" fill="none" xmlns="http://www.w3.org/2000/svg">
<path d="M20.9817 16.0002C20.827 15.7392 20.392 15.3332 19.3093 15.5266C18.71 15.6329 18.101 15.6812 17.492 15.6522C15.2397 15.5556 13.2 14.5212 11.779 12.9262C10.5223 11.5246 9.74901 9.69756 9.73935 7.72556C9.73935 6.62356 9.95201 5.56023 10.387 4.55489C10.8123 3.57856 10.5127 3.06623 10.3 2.85356C10.0777 2.63123 9.55568 2.32189 8.53101 2.74723C4.57735 4.40989 2.13168 8.37323 2.42168 12.6169C2.71168 16.6092 5.51501 20.0216 9.22701 21.3072C10.1163 21.6166 11.054 21.8002 12.0207 21.8389C12.1753 21.8486 12.33 21.8582 12.4847 21.8582C15.723 21.8582 18.7583 20.3309 20.6723 17.7306C21.32 16.8316 21.146 16.2612 20.9817 16.0002Z" fill="#B8C3E1"/>
</svg>
