<svg width="18" height="18" viewBox="0 0 18 18" fill="none" xmlns="http://www.w3.org/2000/svg">
<path d="M3.676 0.0538623C7.70103 0.919925 11.3052 3.14519 13.8828 6.35565C16.5705 9.693 17.8726 13.6967 17.8636 17.6714L14.8642 17.6665C14.874 14.2357 13.7024 10.9061 11.5463 8.23729C9.30714 5.4568 6.27788 3.68495 3.04125 2.98528L3.676 0.0538623ZM2.61636 4.94008C5.52361 5.56554 8.12689 7.17281 9.98861 9.49172C11.9292 11.9015 12.8698 14.793 12.8646 17.6643L9.86444 17.66C9.87093 15.3726 9.0897 13.1526 7.65206 11.3734C6.15929 9.5197 4.1402 8.33899 1.98161 7.8715L2.61714 4.93946L2.61636 4.94008ZM1.55735 9.82708C3.34647 10.2119 4.94858 11.2008 6.09437 12.6278C7.28859 14.1107 7.86765 15.89 7.86414 17.657L4.86402 17.6528C4.86718 16.5091 4.47657 15.3991 3.75783 14.5094C3.04186 13.6175 2.0407 12.9993 0.922602 12.7585L1.55813 9.82646L1.55735 9.82708Z" fill="#737373" fill-opacity="0.5"/>
</svg>
