<svg width="19" height="18" viewBox="0 0 19 18" fill="none" xmlns="http://www.w3.org/2000/svg">
<path d="M9.03125 0.208984C7.25122 0.208984 5.51116 0.72455 4.03112 1.69048C2.55108 2.65642 1.39753 4.02934 0.716338 5.63563C0.0351494 7.24192 -0.14308 9.00943 0.204187 10.7147C0.551453 12.4199 1.40862 13.9862 2.66729 15.2156C3.92597 16.445 5.52961 17.2823 7.27544 17.6215C9.02127 17.9607 10.8309 17.7866 12.4754 17.1212C14.1199 16.4559 15.5255 15.3292 16.5145 13.8835C17.5034 12.4379 18.0312 10.7383 18.0312 8.99968C18.0286 6.66905 17.0795 4.43462 15.3923 2.78661C13.705 1.1386 11.4174 0.211604 9.03125 0.208984ZM0.837231 8.99968C0.838366 6.91186 1.67473 4.90712 3.16789 3.41315C4.66106 1.91917 6.69281 1.05425 8.82969 1.00289C10.9666 0.951534 13.0394 1.71781 14.606 3.13825C16.1726 4.55869 17.1089 6.52082 17.2151 8.60606H12.6195C12.5437 7.94602 12.2788 7.32027 11.855 6.8008C11.4313 6.28134 10.866 5.88928 10.2243 5.66973C9.58251 5.45018 8.89033 5.41205 8.22736 5.55975C7.5644 5.70745 6.95759 6.03496 6.47677 6.5046C5.99594 6.97425 5.66063 7.56694 5.50942 8.21449C5.35821 8.86203 5.39723 9.53812 5.62201 10.165C5.84679 10.7918 6.24819 11.3439 6.78002 11.7578C7.31185 12.1717 7.9525 12.4305 8.62826 12.5044V16.9932C6.52826 16.8899 4.54905 16.0029 3.09924 14.5154C1.64942 13.0279 0.839701 11.0535 0.837231 8.99968ZM9.03125 11.7406C8.47624 11.7406 7.9337 11.5798 7.47222 11.2787C7.01075 10.9775 6.65107 10.5494 6.43868 10.0486C6.22629 9.54775 6.17071 8.99664 6.27899 8.46495C6.38727 7.93327 6.65453 7.44488 7.04698 7.06156C7.43943 6.67823 7.93945 6.41718 8.48379 6.31143C9.02814 6.20567 9.59237 6.25995 10.1051 6.4674C10.6179 6.67485 11.0562 7.02616 11.3645 7.47691C11.6729 7.92765 11.8374 8.45758 11.8374 8.99968C11.8366 9.72636 11.5407 10.423 11.0146 10.9369C10.4885 11.4507 9.77524 11.7398 9.03125 11.7406ZM9.43424 16.9932V12.5044C10.2473 12.4144 11.005 12.0577 11.5835 11.4926C12.1621 10.9275 12.5273 10.1874 12.6195 9.3933H17.2151C17.1127 11.3766 16.26 13.252 14.8224 14.6562C13.3848 16.0603 11.4647 16.8932 9.43424 16.9932Z" fill="#667085"/>
<path d="M9.03001 7.07812C8.64087 7.07812 8.26047 7.19083 7.93692 7.402C7.61336 7.61316 7.36118 7.9133 7.21227 8.26445C7.06335 8.61561 7.02439 9.00201 7.10031 9.37479C7.17622 9.74757 7.36361 10.09 7.63877 10.3588C7.91393 10.6275 8.26451 10.8105 8.64616 10.8847C9.02782 10.9588 9.42342 10.9208 9.78294 10.7753C10.1425 10.6299 10.4497 10.3836 10.6659 10.0675C10.8821 9.75151 10.9975 9.37996 10.9975 8.99987C10.9969 8.49038 10.7894 8.00192 10.4206 7.64165C10.0517 7.28138 9.55163 7.07872 9.03001 7.07812ZM9.03001 10.1344C8.80028 10.1344 8.57571 10.0679 8.3847 9.94319C8.19368 9.81853 8.04481 9.64134 7.95689 9.43403C7.86898 9.22673 7.84598 8.99861 7.8908 8.77854C7.93561 8.55847 8.04624 8.35631 8.20868 8.19765C8.37112 8.03898 8.57809 7.93093 8.8034 7.88716C9.02872 7.84338 9.26226 7.86585 9.4745 7.95172C9.68674 8.03759 9.86815 8.183 9.99578 8.36957C10.1234 8.55614 10.1915 8.77549 10.1915 8.99987C10.1912 9.30067 10.0688 9.58907 9.85099 9.80177C9.63323 10.0145 9.33797 10.1341 9.03001 10.1344Z" fill="#667085"/>
</svg>
