<svg width="18" height="12" viewBox="0 0 18 12" fill="none" xmlns="http://www.w3.org/2000/svg">
<path d="M17.597 2.40795C17.7039 2.40795 17.8064 2.36549 17.882 2.28992C17.9575 2.21434 18 2.11184 18 2.00496V1.07486C18 0.967984 17.9575 0.865482 17.882 0.789907C17.8064 0.714332 17.7039 0.671875 17.597 0.671875H0.402989C0.296109 0.671875 0.193608 0.714332 0.118033 0.789907C0.0424577 0.865482 0 0.967984 0 1.07486V2.00542C0 2.1123 0.0424577 2.2148 0.118033 2.29038C0.193608 2.36595 0.296109 2.40841 0.402989 2.40841C0.563783 2.41152 0.71694 2.47759 0.829554 2.5924C0.942167 2.70722 1.00525 2.86163 1.00525 3.02245C1.00525 3.18327 0.942167 3.33768 0.829554 3.4525C0.71694 3.56731 0.563783 3.63337 0.402989 3.63649C0.296109 3.63649 0.193608 3.67895 0.118033 3.75452C0.0424577 3.8301 0 3.9326 0 4.03948V8.73165C0 8.83852 0.0424577 8.94103 0.118033 9.0166C0.193608 9.09218 0.296109 9.13463 0.402989 9.13463H1.03626V10.9257C1.03626 11.0326 1.07871 11.1351 1.15429 11.2107C1.22986 11.2863 1.33237 11.3287 1.43924 11.3287H5.77609C5.88297 11.3287 5.98547 11.2863 6.06105 11.2107C6.13662 11.1351 6.17908 11.0326 6.17908 10.9257V9.13463H9.01911V10.9257C9.01911 11.0326 9.06157 11.1351 9.13715 11.2107C9.21272 11.2863 9.31522 11.3287 9.4221 11.3287H16.5608C16.6676 11.3287 16.7701 11.2863 16.8457 11.2107C16.9213 11.1351 16.9637 11.0326 16.9637 10.9257V9.13463H17.597C17.7039 9.13463 17.8064 9.09218 17.882 9.0166C17.9575 8.94103 18 8.83852 18 8.73165V4.03948C18 3.9326 17.9575 3.8301 17.882 3.75452C17.8064 3.67895 17.7039 3.63649 17.597 3.63649C17.4362 3.63337 17.2831 3.56731 17.1704 3.4525C17.0578 3.33768 16.9947 3.18327 16.9947 3.02245C16.9947 2.86163 17.0578 2.70722 17.1704 2.5924C17.2831 2.47759 17.4362 2.41152 17.597 2.40841V2.40795ZM5.3731 10.5228H4.81652V10.0993C4.81652 9.99239 4.77406 9.88989 4.69849 9.81432C4.62291 9.73874 4.52041 9.69629 4.41353 9.69629C4.30665 9.69629 4.20415 9.73874 4.12857 9.81432C4.053 9.88989 4.01054 9.99239 4.01054 10.0993V10.5232H3.20456V10.0993C3.20456 9.99239 3.16211 9.88989 3.08653 9.81432C3.01096 9.73874 2.90846 9.69629 2.80158 9.69629C2.6947 9.69629 2.59219 9.73874 2.51662 9.81432C2.44104 9.88989 2.39859 9.99239 2.39859 10.0993V10.5232H1.84223V9.13463H5.3731V10.5228ZM16.1578 10.5228H15.0064V10.0993C15.0064 9.99239 14.9639 9.88989 14.8883 9.81432C14.8128 9.73874 14.7103 9.69629 14.6034 9.69629C14.4965 9.69629 14.394 9.73874 14.3184 9.81432C14.2429 9.88989 14.2004 9.99239 14.2004 10.0993V10.5232H13.3944V10.0993C13.3944 9.99239 13.352 9.88989 13.2764 9.81432C13.2008 9.73874 13.0983 9.69629 12.9914 9.69629C12.8845 9.69629 12.782 9.73874 12.7065 9.81432C12.6309 9.88989 12.5884 9.99239 12.5884 10.0993V10.5232H11.7825V10.0993C11.7825 9.99239 11.74 9.88989 11.6644 9.81432C11.5889 9.73874 11.4864 9.69629 11.3795 9.69629C11.2726 9.69629 11.1701 9.73874 11.0945 9.81432C11.0189 9.88989 10.9765 9.99239 10.9765 10.0993V10.5232H9.82509V9.13463H16.1578V10.5228ZM17.194 4.3842V8.32866H0.805977V4.3842C1.09971 4.29728 1.35746 4.11771 1.54077 3.8723C1.72408 3.62688 1.82313 3.32877 1.82313 3.02245C1.82313 2.71613 1.72408 2.41802 1.54077 2.1726C1.35746 1.92718 1.09971 1.74762 0.805977 1.66069V1.47785H17.194V1.66069C16.9003 1.74762 16.6425 1.92718 16.4592 2.1726C16.2759 2.41802 16.1769 2.71613 16.1769 3.02245C16.1769 3.32877 16.2759 3.62688 16.4592 3.8723C16.6425 4.11771 16.9003 4.29728 17.194 4.3842Z" fill="#667085"/>
<path d="M5.69983 2.40625H3.28189C3.17502 2.40625 3.07251 2.44871 2.99694 2.52428C2.92136 2.59986 2.87891 2.70236 2.87891 2.80924V6.99318C2.87891 7.10006 2.92136 7.20256 2.99694 7.27814C3.07251 7.35371 3.17502 7.39617 3.28189 7.39617H5.69983C5.80671 7.39617 5.90921 7.35371 5.98478 7.27814C6.06036 7.20256 6.10281 7.10006 6.10281 6.99318V2.8097C6.10288 2.75674 6.0925 2.70429 6.07227 2.65534C6.05205 2.60639 6.02237 2.56191 5.98494 2.52444C5.94752 2.48698 5.90307 2.45725 5.85415 2.43697C5.80523 2.41669 5.75279 2.40625 5.69983 2.40625ZM5.29684 6.58973H3.68488V3.21223H5.29684V6.58973Z" fill="#667085"/>
<path d="M10.2076 2.40625H7.78971C7.73675 2.40625 7.68431 2.41669 7.63538 2.43697C7.58646 2.45725 7.54202 2.48698 7.50459 2.52444C7.46716 2.56191 7.43749 2.60639 7.41726 2.65534C7.39704 2.70429 7.38666 2.75674 7.38672 2.8097V6.99318C7.38672 7.10006 7.42918 7.20256 7.50475 7.27814C7.58033 7.35371 7.68283 7.39617 7.78971 7.39617H10.2076C10.3145 7.39617 10.417 7.35371 10.4926 7.27814C10.5682 7.20256 10.6106 7.10006 10.6106 6.99318V2.8097C10.6107 2.75674 10.6003 2.70429 10.5801 2.65534C10.5599 2.60639 10.5302 2.56191 10.4928 2.52444C10.4553 2.48698 10.4109 2.45725 10.362 2.43697C10.313 2.41669 10.2606 2.40625 10.2076 2.40625ZM9.80465 6.59019H8.1927V3.21223H9.80465V6.59019Z" fill="#667085"/>
<path d="M14.7194 2.40625H12.3014C12.1945 2.40625 12.092 2.44871 12.0165 2.52428C11.9409 2.59986 11.8984 2.70236 11.8984 2.80924V6.99318C11.8984 7.10006 11.9409 7.20256 12.0165 7.27814C12.092 7.35371 12.1945 7.39617 12.3014 7.39617H14.7194C14.8262 7.39617 14.9287 7.35371 15.0043 7.27814C15.0799 7.20256 15.1223 7.10006 15.1223 6.99318V2.8097C15.1224 2.75674 15.112 2.70429 15.0918 2.65534C15.0716 2.60639 15.0419 2.56191 15.0045 2.52444C14.967 2.48698 14.9226 2.45725 14.8737 2.43697C14.8248 2.41669 14.7723 2.40625 14.7194 2.40625ZM14.3164 6.58973H12.7044V3.21223H14.3164V6.58973Z" fill="#667085"/>
</svg>
