<svg width="24" height="24" viewBox="0 0 24 24" fill="none" xmlns="http://www.w3.org/2000/svg">
<path d="M2.24 20.4364C2.37333 20.7831 2.59333 21.1231 2.9 21.4564C3.18 21.7364 3.52 21.9698 3.92 22.1564C4.30667 22.3164 4.71333 22.3964 5.14 22.3964C5.54 22.3964 5.93667 22.3198 6.33 22.1664C6.72333 22.0131 7.06667 21.7898 7.36 21.4964H7.38V21.4764L14 14.7964C14.84 15.0364 15.7 15.0964 16.58 14.9764C17.62 14.8298 18.5633 14.4431 19.41 13.8164C20.2567 13.1898 20.91 12.3964 21.37 11.4364C21.83 10.4764 22.04 9.4831 22 8.45644C21.9733 8.13644 21.8733 7.84977 21.7 7.59644C21.5267 7.3431 21.3 7.15977 21.02 7.04644C20.74 6.9331 20.4433 6.90977 20.13 6.97644C19.8167 7.0431 19.5467 7.17644 19.32 7.37644V7.39644L17.94 8.73644C17.6333 9.0431 17.2567 9.19644 16.81 9.19644C16.3633 9.19644 15.9833 9.03644 15.67 8.71644C15.3567 8.39644 15.2033 8.0131 15.21 7.56644C15.2167 7.11977 15.38 6.74977 15.7 6.45644L17.06 5.09644H17.08C17.3067 4.85644 17.4467 4.59644 17.5 4.31644C17.5667 3.99644 17.5433 3.6931 17.43 3.40644C17.3167 3.11977 17.1333 2.8831 16.88 2.69644C16.6267 2.50977 16.3467 2.41644 16.04 2.41644C15 2.33644 13.9967 2.5231 13.03 2.97644C12.0633 3.42977 11.2633 4.0731 10.63 4.90644C9.99667 5.73977 9.6 6.6831 9.44 7.73644C9.29333 8.6031 9.33333 9.4631 9.56 10.3164L2.94 16.9964C2.64667 17.2898 2.41667 17.6231 2.25 17.9964C2.08333 18.3698 2 18.7698 2 19.1964C2 19.6231 2.08 20.0364 2.24 20.4364Z" fill="#D9D9D9"/>
</svg>
