<svg width="24" height="24" viewBox="0 0 24 24" fill="none" xmlns="http://www.w3.org/2000/svg">
<path fill-rule="evenodd" clip-rule="evenodd" d="M12.0419 2.19922C12.3582 2.19922 12.6628 2.26258 12.9549 2.38929C13.2477 2.51601 13.5031 2.69655 13.7225 2.93091C13.9413 3.16526 14.109 3.43437 14.2249 3.73821C14.3402 4.04206 14.3919 4.35885 14.3801 4.68791C14.3801 4.85277 14.4286 5.01764 14.5262 5.18251C14.648 5.423 14.8517 5.58446 15.1379 5.66689C15.4241 5.74933 15.6887 5.7139 15.9324 5.56198L16.1813 5.99936L15.9507 5.56198C16.3162 5.3467 16.7059 5.23906 17.1199 5.23906C17.5338 5.23906 17.9202 5.3467 18.2798 5.56198C18.6387 5.77726 18.9223 6.07498 19.1293 6.45513L19.6769 7.44297C19.7017 7.46818 19.7135 7.49407 19.7135 7.51927C19.9087 7.89942 19.9998 8.29797 19.9873 8.71627C19.9755 9.13389 19.8688 9.52698 19.6677 9.89419C19.521 10.1633 19.333 10.3922 19.1038 10.5795C19.0199 10.6477 18.9308 10.711 18.8365 10.7683L18.5863 10.3282L18.8188 10.7683C18.6721 10.8698 18.551 10.9958 18.4534 11.1484C18.344 11.3378 18.2962 11.5374 18.3093 11.7486C18.3139 11.8195 18.325 11.8917 18.3433 11.9653C18.4167 12.2562 18.5752 12.4783 18.8188 12.6302C19.0867 12.795 19.3147 13.0035 19.5033 13.2569C19.6926 13.5104 19.8295 13.7924 19.9146 14.1024C19.9998 14.4131 20.0214 14.7265 19.9788 15.0432C19.9356 15.36 19.8354 15.6639 19.6769 15.9548L19.0926 16.9624C18.8857 17.3419 18.6027 17.6368 18.2431 17.8453C17.8842 18.0545 17.4971 18.1587 17.0832 18.1587C16.6692 18.1587 16.2795 18.0511 15.9141 17.8358C15.7922 17.7602 15.6278 17.7091 15.4209 17.6839C15.21 17.6839 15.0259 17.735 14.8681 17.8378C14.798 17.8841 14.7325 17.9407 14.6722 18.0068C14.477 18.2221 14.3801 18.4755 14.3801 18.7671L13.7494 18.7862H14.3801C14.3801 19.2167 14.2766 19.6187 14.0697 19.9927C13.936 20.2332 13.7703 20.4416 13.5738 20.6167C13.4658 20.7135 13.3479 20.8 13.2202 20.8763C12.8606 21.0916 12.4683 21.1992 12.0419 21.1992H10.9461C10.5197 21.1992 10.1267 21.0916 9.76781 20.8763C9.40823 20.661 9.12528 20.366 8.91831 19.9927C8.81286 19.8019 8.73427 19.6023 8.68252 19.3938C8.63275 19.1936 8.60786 18.9844 8.60786 18.7671C8.60786 18.6022 8.55873 18.438 8.4618 18.2732V18.2541C8.33997 18.0136 8.13562 17.8521 7.8494 17.7697C7.56383 17.6873 7.29857 17.722 7.05492 17.8739C6.78704 18.0388 6.4982 18.1403 6.18774 18.1778C5.87663 18.2159 5.56945 18.1907 5.26489 18.1022C4.96033 18.0136 4.68982 17.8678 4.45207 17.6648C4.21497 17.4624 4.01651 17.222 3.85867 16.9433L3.31046 15.9364C3.10349 15.5562 3 15.1536 3 14.7299C3 14.4608 3.04061 14.2012 3.12117 13.9525C3.16767 13.8088 3.22793 13.6691 3.30129 13.5329C3.50236 13.1588 3.78531 12.8584 4.15078 12.6302C4.24837 12.5757 4.33417 12.5055 4.40884 12.4203C4.45534 12.3665 4.49726 12.3066 4.5346 12.2405C4.63153 12.0695 4.68065 11.889 4.68065 11.6989C4.68065 11.5088 4.63153 11.3289 4.5346 11.1579C4.43701 10.9869 4.30929 10.8568 4.15078 10.7683C3.78531 10.54 3.50236 10.2396 3.30129 9.86557C3.10021 9.49224 3 9.08961 3 8.65904C3 8.22848 3.10349 7.82312 3.31046 7.44297V7.4239L3.89534 6.43605C4.1141 6.0559 4.4036 5.75818 4.76253 5.5429C4.94199 5.43526 5.128 5.35487 5.32056 5.30105C5.51443 5.24723 5.71485 5.21998 5.92248 5.21998C6.33642 5.21998 6.72613 5.32762 7.0916 5.5429C7.21342 5.6192 7.37193 5.66962 7.56645 5.69551C7.85857 5.68256 8.10549 5.57492 8.30657 5.3719C8.41923 5.25813 8.50044 5.13005 8.54956 4.98835C8.58821 4.87798 8.60786 4.75876 8.60786 4.63136C8.60786 4.30162 8.66549 3.98824 8.78142 3.69052C8.8967 3.39281 9.06437 3.13052 9.28379 2.90229C9.50255 2.67407 9.75536 2.50034 10.0416 2.37976C10.3278 2.25917 10.6291 2.19922 10.9461 2.19922H12.0419ZM11.4675 14.4076C12.9955 14.4076 14.2341 13.1582 14.2341 11.6171C14.2341 10.0761 12.9955 8.82663 11.4675 8.82663C9.93941 8.82663 8.70086 10.0761 8.70086 11.6171C8.70086 13.1582 9.93941 14.4076 11.4675 14.4076Z" fill="#D9D9D9"/>
</svg>
