<svg width="61" height="55" viewBox="0 0 61 55" fill="none" xmlns="http://www.w3.org/2000/svg">
<path d="M6.05859 0.0585938H54.0586L60.0586 12.0586V51.0586C60.0586 51.8542 59.7425 52.6173 59.1799 53.1799C58.6173 53.7425 57.8542 54.0586 57.0586 54.0586H3.05859C2.26294 54.0586 1.49988 53.7425 0.937273 53.1799C0.374664 52.6173 0.0585938 51.8542 0.0585938 51.0586V12.0706L6.05859 0.0585938ZM54.0586 18.0586H6.05859V48.0586H54.0586V18.0586ZM53.3506 12.0586L50.3506 6.05859H9.76959L6.76959 12.0586H53.3506ZM33.0586 33.0586H42.0586L30.0586 45.0586L18.0586 33.0586H27.0586V21.0586H33.0586V33.0586Z" fill="#2B61D1"/>
</svg>
