<svg width="11" height="17" viewBox="0 0 11 17" fill="none" xmlns="http://www.w3.org/2000/svg">
<path d="M8.86757 4.45898H1.62723C1.53443 4.45898 1.44544 4.49672 1.37982 4.5639C1.31421 4.63108 1.27734 4.72219 1.27734 4.8172V8.94216C1.27734 9.03717 1.31421 9.12828 1.37982 9.19546C1.44544 9.26263 1.53443 9.30037 1.62723 9.30037H8.86757C8.96037 9.30037 9.04936 9.26263 9.11498 9.19546C9.18059 9.12828 9.21745 9.03717 9.21745 8.94216V4.8172C9.21745 4.72219 9.18059 4.63108 9.11498 4.5639C9.04936 4.49672 8.96037 4.45898 8.86757 4.45898ZM8.51769 8.58354H1.97711V5.17541H8.51769V8.58354Z" fill="#667085"/>
<path d="M9.36443 0.5H1.13202C0.831919 0.500325 0.544201 0.622507 0.331981 0.839741C0.119762 1.05698 0.000370454 1.35152 0 1.65876V15.3412C0.000370454 15.6485 0.119762 15.943 0.331981 16.1603C0.544201 16.3775 0.831919 16.4997 1.13202 16.5H2.14927C2.24207 16.5 2.33106 16.4623 2.39668 16.3951C2.46229 16.3279 2.49915 16.2368 2.49915 16.1418V14.7345H3.30728V15.2293C3.30728 15.3243 3.34414 15.4154 3.40976 15.4826C3.47537 15.5497 3.56437 15.5875 3.65716 15.5875C3.74996 15.5875 3.83895 15.5497 3.90457 15.4826C3.97018 15.4154 4.00704 15.3243 4.00704 15.2293V14.7345H4.89834V15.2293C4.89834 15.3243 4.9352 15.4154 5.00082 15.4826C5.06643 15.5497 5.15543 15.5875 5.24822 15.5875C5.34102 15.5875 5.43001 15.5497 5.49563 15.4826C5.56124 15.4154 5.5981 15.3243 5.5981 15.2293V14.7345H6.4894V15.2293C6.4894 15.3243 6.52627 15.4154 6.59188 15.4826C6.6575 15.5497 6.74649 15.5875 6.83928 15.5875C6.93208 15.5875 7.02107 15.5497 7.08669 15.4826C7.1523 15.4154 7.18917 15.3243 7.18917 15.2293V14.7345H7.99729V16.1418C7.99729 16.2368 8.03415 16.3279 8.09977 16.3951C8.16539 16.4623 8.25438 16.5 8.34717 16.5H9.36443C9.66453 16.4997 9.95224 16.3775 10.1645 16.1603C10.3767 15.943 10.4961 15.6485 10.4964 15.3412V1.65876C10.4961 1.35152 10.3767 1.05698 10.1645 0.839741C9.95224 0.622507 9.66453 0.500325 9.36443 0.5ZM1.97793 1.21642H8.51852V1.77626H1.97793V1.21642ZM9.79668 15.3412C9.79652 15.4585 9.75093 15.571 9.66989 15.6539C9.58886 15.7368 9.479 15.7835 9.36443 15.7836H8.69705V14.3763C8.697 14.2813 8.66012 14.1902 8.59452 14.1231C8.52891 14.0559 8.43995 14.0182 8.34717 14.0181H2.14927C2.05649 14.0182 1.96753 14.0559 1.90193 14.1231C1.83632 14.1902 1.79944 14.2813 1.79939 14.3763V15.7836H1.13202C1.01744 15.7835 0.90759 15.7368 0.826555 15.6539C0.74552 15.571 0.699922 15.4585 0.699763 15.3412V1.65876C0.699922 1.54146 0.74552 1.42902 0.826555 1.34609C0.90759 1.26316 1.01744 1.21653 1.13202 1.21642H1.27817V2.13406C1.27817 2.22906 1.31503 2.32018 1.38065 2.38735C1.44626 2.45453 1.53525 2.49227 1.62805 2.49227H8.8684C8.96119 2.49227 9.05018 2.45453 9.1158 2.38735C9.18142 2.32018 9.21828 2.22906 9.21828 2.13406V1.21642H9.36443C9.479 1.21653 9.58886 1.26316 9.66989 1.34609C9.75093 1.42902 9.79652 1.54146 9.79668 1.65876V15.3412Z" fill="#667085"/>
<path d="M3.36061 7.44416C3.31607 7.44676 3.27156 7.43842 3.2308 7.41983C3.19003 7.40125 3.1542 7.37295 3.12629 7.33731C3.08803 7.28046 3.06501 7.21433 3.05952 7.14551L2.55469 7.17785C2.5641 7.3431 2.63197 7.49919 2.74562 7.61692C2.91893 7.75168 3.13605 7.81342 3.35242 7.78948C3.49371 7.79415 3.63444 7.76907 3.76588 7.71579C3.87005 7.67108 3.95895 7.59579 4.02139 7.49943C4.08142 7.40711 4.11323 7.29858 4.11276 7.18768C4.11386 7.09607 4.09012 7.00594 4.04418 6.92731C3.99028 6.84243 3.91404 6.77488 3.82426 6.73244C3.66463 6.66086 3.49734 6.60872 3.32583 6.57708C3.26253 6.56917 3.20171 6.54709 3.14769 6.5124C3.13612 6.50359 3.12664 6.49223 3.11996 6.47915C3.11327 6.46607 3.10956 6.45162 3.1091 6.43687C3.10902 6.41797 3.1132 6.39932 3.12132 6.38234C3.12943 6.36537 3.14126 6.35055 3.15588 6.33902C3.1964 6.30899 3.24594 6.29449 3.29584 6.29809C3.32764 6.29435 3.35986 6.29734 3.39049 6.30689C3.42111 6.31644 3.44949 6.33233 3.47387 6.35358C3.49824 6.37483 3.51809 6.40098 3.53218 6.43042C3.54626 6.45985 3.55429 6.49194 3.55575 6.52468L4.05558 6.4948C4.05137 6.4171 4.03083 6.34126 3.99535 6.27244C3.95988 6.20362 3.91032 6.14346 3.85005 6.09605C3.69913 6.00277 3.52395 5.95898 3.34802 5.97058C3.20418 5.96452 3.06061 5.98797 2.92576 6.03956C2.83225 6.07801 2.75196 6.14397 2.69504 6.2291C2.64527 6.30481 2.61855 6.39392 2.61827 6.48518C2.6168 6.54964 2.62951 6.61361 2.65547 6.67236C2.68143 6.73111 2.71996 6.78312 2.76822 6.82456C2.91531 6.93507 3.08593 7.00824 3.26605 7.03805C3.36277 7.05192 3.45548 7.08682 3.53795 7.1404C3.55588 7.15525 3.57042 7.17394 3.58054 7.19516C3.59066 7.21637 3.59612 7.2396 3.59653 7.26321C3.59615 7.28767 3.59042 7.31172 3.57976 7.33361C3.56911 7.3555 3.5538 7.37467 3.53496 7.38971C3.48517 7.42881 3.42324 7.44815 3.36061 7.44416Z" fill="#667085"/>
<path d="M5.21608 7.44416C5.17154 7.44676 5.12702 7.43842 5.08626 7.41983C5.0455 7.40125 5.00967 7.37295 4.98176 7.33731C4.9435 7.28046 4.92047 7.21433 4.91499 7.14551L4.41016 7.17785C4.41957 7.3431 4.48744 7.49919 4.60109 7.61692C4.7744 7.75168 4.99152 7.81342 5.20789 7.78948C5.34918 7.79417 5.48991 7.76909 5.62135 7.71579C5.72551 7.67108 5.81442 7.59579 5.87686 7.49943C5.93689 7.40711 5.9687 7.29858 5.96823 7.18768C5.96942 7.09606 5.94568 7.0059 5.89965 6.92731C5.8458 6.84239 5.76954 6.77482 5.67973 6.73244C5.5201 6.66086 5.35281 6.60872 5.18129 6.57708C5.11805 6.56919 5.0573 6.5471 5.00336 6.5124C4.99174 6.50363 4.98221 6.49227 4.9755 6.47919C4.96878 6.46611 4.96504 6.45164 4.96457 6.43687C4.96451 6.41796 4.96873 6.39929 4.97687 6.38232C4.98502 6.36534 4.99689 6.35053 5.01155 6.33902C5.05203 6.30891 5.1016 6.29441 5.15151 6.29809C5.1833 6.29441 5.21549 6.29745 5.2461 6.30702C5.2767 6.31659 5.30506 6.33249 5.32942 6.35372C5.35378 6.37496 5.37363 6.40109 5.38773 6.4305C5.40184 6.4599 5.4099 6.49196 5.41142 6.52468L5.91125 6.4948C5.90696 6.4171 5.88636 6.34126 5.85086 6.27245C5.81536 6.20364 5.76579 6.14348 5.70552 6.09605C5.5546 6.00277 5.37942 5.95898 5.20349 5.97058C5.05965 5.96452 4.91608 5.98797 4.78123 6.03956C4.68775 6.07807 4.60748 6.14402 4.55051 6.2291C4.50074 6.30481 4.47402 6.39392 4.47373 6.48518C4.47227 6.54964 4.48498 6.61361 4.51094 6.67236C4.5369 6.73111 4.57543 6.78312 4.62368 6.82456C4.77078 6.93507 4.9414 7.00824 5.12152 7.03805C5.21824 7.05192 5.31095 7.08682 5.39342 7.1404C5.41135 7.15525 5.42589 7.17394 5.43601 7.19516C5.44613 7.21637 5.45159 7.2396 5.452 7.26321C5.45162 7.28767 5.44589 7.31172 5.43523 7.33361C5.42457 7.3555 5.40927 7.37467 5.39043 7.38971C5.34064 7.42881 5.27871 7.44815 5.21608 7.44416Z" fill="#667085"/>
<path d="M7.464 7.70637C7.55399 7.6808 7.63641 7.63284 7.70392 7.56677C7.77988 7.49411 7.83926 7.40522 7.87786 7.3064C7.92536 7.16605 7.94659 7.01779 7.94044 6.86938C7.9411 6.75444 7.92692 6.63991 7.89825 6.52877C7.87248 6.42624 7.82626 6.33027 7.7625 6.24691C7.69933 6.16588 7.61751 6.10216 7.52438 6.06146C7.40444 6.01384 7.27626 5.99183 7.14771 5.99678H6.35938V7.75509H7.14771C7.25476 7.75307 7.3611 7.7367 7.464 7.70637ZM6.89 7.35512V6.39429H7.02235C7.07585 6.38878 7.12989 6.39506 7.18083 6.41272C7.23176 6.43037 7.27842 6.45898 7.31765 6.49664C7.38906 6.61041 7.42037 6.74574 7.40642 6.88023C7.41186 6.98369 7.3983 7.08729 7.36643 7.18563C7.34581 7.24136 7.30686 7.28797 7.25627 7.31745C7.18113 7.34782 7.10035 7.36075 7.01975 7.35532L6.89 7.35512Z" fill="#667085"/>
</svg>
