<svg width="28" height="28" viewBox="0 0 28 28" fill="none" xmlns="http://www.w3.org/2000/svg">
<path fill-rule="evenodd" clip-rule="evenodd" d="M13.9993 27.3346C21.3631 27.3346 27.3327 21.3651 27.3327 14.0013C27.3327 6.63751 21.3631 0.667969 13.9993 0.667969C6.63555 0.667969 0.666016 6.63751 0.666016 14.0013C0.666016 21.3651 6.63555 27.3346 13.9993 27.3346ZM20.6661 11.8869C21.1868 11.3662 21.1868 10.522 20.6661 10.0013C20.1454 9.48058 19.3012 9.48058 18.7805 10.0013L11.7986 16.9832L8.73567 13.4097C8.25644 12.8506 7.41471 12.7859 6.85561 13.2651C6.29651 13.7443 6.23176 14.586 6.71099 15.1451L10.711 19.8118C10.9527 20.0938 11.301 20.2622 11.6722 20.2764C12.0433 20.2907 12.4035 20.1495 12.6661 19.8869L20.6661 11.8869Z" fill="#1AC057"/>
</svg>
