<svg width="24" height="24" viewBox="0 0 24 24" fill="none" xmlns="http://www.w3.org/2000/svg">
<path d="M12.2354 18.9669C15.9725 18.9669 19.0021 15.9374 19.0021 12.2003C19.0021 8.46313 15.9725 5.43359 12.2354 5.43359C8.49829 5.43359 5.46875 8.46313 5.46875 12.2003C5.46875 15.9374 8.49829 18.9669 12.2354 18.9669Z" fill="#2B61D1"/>
<path d="M12.2349 22.7944C11.7032 22.7944 11.2682 22.3981 11.2682 21.8664V21.7891C11.2682 21.2574 11.7032 20.8224 12.2349 20.8224C12.7666 20.8224 13.2016 21.2574 13.2016 21.7891C13.2016 22.3207 12.7666 22.7944 12.2349 22.7944ZM19.1369 20.0684C18.8856 20.0684 18.6439 19.9717 18.4506 19.7881L18.3249 19.6624C17.9479 19.2854 17.9479 18.6764 18.3249 18.2994C18.7019 17.9224 19.3109 17.9224 19.6879 18.2994L19.8136 18.4251C20.1906 18.8021 20.1906 19.4111 19.8136 19.7881C19.6299 19.9717 19.3882 20.0684 19.1369 20.0684ZM5.3329 20.0684C5.08156 20.0684 4.8399 19.9717 4.64656 19.7881C4.26956 19.4111 4.26956 18.8021 4.64656 18.4251L4.77223 18.2994C5.14923 17.9224 5.75823 17.9224 6.13523 18.2994C6.51223 18.6764 6.51223 19.2854 6.13523 19.6624L6.00956 19.7881C5.8259 19.9717 5.57456 20.0684 5.3329 20.0684ZM21.9016 13.1664H21.8242C21.2926 13.1664 20.8576 12.7314 20.8576 12.1997C20.8576 11.6681 21.2926 11.2331 21.8242 11.2331C22.3559 11.2331 22.8296 11.6681 22.8296 12.1997C22.8296 12.7314 22.4332 13.1664 21.9016 13.1664ZM2.64556 13.1664H2.56823C2.03656 13.1664 1.60156 12.7314 1.60156 12.1997C1.60156 11.6681 2.03656 11.2331 2.56823 11.2331C3.0999 11.2331 3.57356 11.6681 3.57356 12.1997C3.57356 12.7314 3.17723 13.1664 2.64556 13.1664ZM19.0112 6.39007C18.7599 6.39007 18.5182 6.29341 18.3249 6.10974C17.9479 5.73274 17.9479 5.12374 18.3249 4.74674L18.4506 4.62107C18.8276 4.24407 19.4366 4.24407 19.8136 4.62107C20.1906 4.99807 20.1906 5.60707 19.8136 5.98407L19.6879 6.10974C19.5042 6.29341 19.2626 6.39007 19.0112 6.39007ZM5.45856 6.39007C5.20723 6.39007 4.96556 6.29341 4.77223 6.10974L4.64656 5.97441C4.26956 5.59741 4.26956 4.98841 4.64656 4.61141C5.02356 4.23441 5.63256 4.23441 6.00956 4.61141L6.13523 4.73707C6.51223 5.11407 6.51223 5.72307 6.13523 6.10007C5.95156 6.29341 5.70023 6.39007 5.45856 6.39007ZM12.2349 3.53841C11.7032 3.53841 11.2682 3.14207 11.2682 2.61041V2.53307C11.2682 2.00141 11.7032 1.56641 12.2349 1.56641C12.7666 1.56641 13.2016 2.00141 13.2016 2.53307C13.2016 3.06474 12.7666 3.53841 12.2349 3.53841Z" fill="#2B61D1"/>
</svg>
