<svg width="27" height="26" viewBox="0 0 27 26" fill="none" xmlns="http://www.w3.org/2000/svg">
<g clip-path="url(#clip0_1570_45150)">
<rect x="0.5" width="26" height="26" rx="13" fill="#2B61D1"/>
<path d="M20.1693 8.86681C19.6682 9.0842 19.1382 9.22792 18.5959 9.29347C19.1681 8.95169 19.5968 8.41399 19.8026 7.78014C19.265 8.10018 18.6764 8.32567 18.0626 8.44681C17.6523 8.00185 17.1059 7.70567 16.5091 7.60471C15.9124 7.50374 15.299 7.60371 14.7651 7.88893C14.2313 8.17415 13.8072 8.62849 13.5594 9.1807C13.3116 9.7329 13.2541 10.3517 13.3959 10.9401C12.3089 10.8852 11.2456 10.6021 10.275 10.1094C9.30452 9.61665 8.4485 8.92527 7.7626 8.08014C7.52203 8.50025 7.39562 8.97602 7.39594 9.46014C7.39508 9.90973 7.50542 10.3526 7.71711 10.7492C7.9288 11.1458 8.23528 11.4839 8.60927 11.7335C8.17459 11.7216 7.74919 11.605 7.36927 11.3935V11.4268C7.37253 12.0567 7.59327 12.6662 7.99415 13.1521C8.39503 13.638 8.95144 13.9706 9.56927 14.0935C9.33144 14.1659 9.08452 14.204 8.83594 14.2068C8.66386 14.2048 8.49222 14.1892 8.3226 14.1601C8.49854 14.702 8.83902 15.1756 9.29665 15.5149C9.75429 15.8543 10.3063 16.0425 10.8759 16.0535C9.91407 16.8103 8.72653 17.2234 7.5026 17.2268C7.27976 17.2275 7.05709 17.2142 6.83594 17.1868C8.08556 17.9936 9.54181 18.422 11.0293 18.4201C12.0557 18.4308 13.074 18.2368 14.0247 17.8495C14.9753 17.4622 15.8393 16.8894 16.5661 16.1645C17.2929 15.4395 17.8679 14.5771 18.2576 13.6274C18.6474 12.6778 18.844 11.66 18.8359 10.6335C18.8359 10.5201 18.8359 10.4001 18.8359 10.2801C19.3591 9.89001 19.8103 9.41176 20.1693 8.86681Z" fill="white"/>
</g>
<defs>
<clipPath id="clip0_1570_45150">
<rect width="26" height="26" fill="white" transform="translate(0.5)"/>
</clipPath>
</defs>
</svg>
