<svg width="60" height="60" viewBox="0 0 60 60" fill="none" xmlns="http://www.w3.org/2000/svg">
<path d="M10.389 7.29903C15.8327 2.58201 22.797 -0.0100196 30 2.9108e-05C46.569 2.9108e-05 60 13.431 60 30C60 36.408 57.99 42.348 54.57 47.22L45 30H54C54.0004 25.2949 52.6177 20.6934 50.024 16.7678C47.4302 12.8422 43.7398 9.7655 39.4115 7.9204C35.0833 6.0753 30.3081 5.54313 25.6799 6.39008C21.0516 7.23703 16.7744 9.42573 13.38 12.684L10.389 7.29903ZM49.611 52.701C44.1673 57.418 37.203 60.0101 30 60C13.431 60 0 46.569 0 30C0 23.592 2.01 17.652 5.43 12.78L15 30H6C5.99961 34.7052 7.38226 39.3066 9.97601 43.2323C12.5698 47.1579 16.2602 50.2346 20.5885 52.0797C24.9167 53.9248 29.6919 54.4569 34.3201 53.61C38.9484 52.763 43.2256 50.5743 46.62 47.316L49.611 52.701Z" fill="#2B61D1"/>
</svg>
