<svg width="20" height="20" viewBox="0 0 20 20" fill="none" xmlns="http://www.w3.org/2000/svg">
<g clip-path="url(#clip0_169_1743)">
<path d="M13.3326 13.3352L9.99923 10.0019M9.99923 10.0019L6.6659 13.3352M9.99923 10.0019V17.5019M16.9909 15.3269C17.8037 14.8838 18.4458 14.1826 18.8158 13.334C19.1858 12.4855 19.2627 11.5379 19.0344 10.6408C18.8061 9.74365 18.2855 8.94812 17.5548 8.37973C16.8241 7.81134 15.925 7.50247 14.9992 7.50186H13.9492C13.697 6.52623 13.2269 5.62047 12.5742 4.85269C11.9215 4.0849 11.1033 3.47507 10.181 3.06903C9.2587 2.663 8.25636 2.47132 7.24933 2.50843C6.2423 2.54553 5.25679 2.81044 4.36688 3.28325C3.47697 3.75605 2.70583 4.42444 2.11142 5.23818C1.51701 6.05191 1.11481 6.98981 0.935051 7.98135C0.755293 8.9729 0.802655 9.9923 1.07358 10.9629C1.3445 11.9335 1.83194 12.8301 2.49923 13.5852" stroke="#344054" stroke-width="1.67" stroke-linecap="round" stroke-linejoin="round"/>
</g>
<defs>
<clipPath id="clip0_169_1743">
<rect width="20" height="20" fill="white"/>
</clipPath>
</defs>
</svg>
