<svg width="24" height="24" viewBox="0 0 24 24" fill="none" xmlns="http://www.w3.org/2000/svg">
<path fill-rule="evenodd" clip-rule="evenodd" d="M11.5147 21.5059C17.0327 21.5059 21.5059 17.0327 21.5059 11.5147C21.5059 5.99667 17.0327 1.52344 11.5147 1.52344C5.99667 1.52344 1.52344 5.99667 1.52344 11.5147C1.52344 17.0327 5.99667 21.5059 11.5147 21.5059ZM11.9308 8.66931C11.7312 8.58918 11.525 8.56915 11.3121 8.60921C11.0992 8.64928 10.9163 8.7461 10.7632 8.89969C10.6102 9.05327 10.5138 9.2369 10.4739 9.45058C10.4339 9.66426 10.4539 9.86793 10.5337 10.0616C10.6136 10.2552 10.7433 10.4155 10.9229 10.5424C11.1025 10.6692 11.2988 10.7327 11.5117 10.7327C12.0173 10.7327 12.4963 10.8862 12.9486 11.1934C13.401 11.5006 13.727 11.8946 13.9266 12.3753C14.1262 12.8561 14.1794 13.3569 14.0862 13.8778C13.9532 14.4253 13.7137 14.8727 13.3678 15.22C13.0436 15.5345 12.6844 15.7521 12.29 15.8729V16.4419C12.29 16.6556 12.2135 16.8393 12.0605 16.9928C11.9075 17.1464 11.7246 17.2232 11.5117 17.2232C11.2988 17.2232 11.1158 17.1464 10.9628 16.9928C10.8098 16.8393 10.7333 16.6556 10.7333 16.4419V15.8603C10.66 15.8371 10.5868 15.8106 10.5138 15.7809C10.0215 15.5805 9.62897 15.2533 9.33626 14.7993C9.04354 14.3452 8.89718 13.8644 8.89718 13.3569C8.89718 13.1432 8.97369 12.9596 9.1267 12.806C9.27971 12.6525 9.46266 12.5757 9.67554 12.5757C9.88842 12.5757 10.0714 12.6525 10.2244 12.806C10.3774 12.9596 10.4539 13.1432 10.4539 13.3569C10.4539 13.5706 10.5071 13.7676 10.6136 13.9479C10.72 14.1282 10.8863 14.2651 11.1125 14.3586C11.2988 14.4387 11.505 14.4587 11.7312 14.4187C11.9308 14.3786 12.1104 14.2784 12.2701 14.1182C12.4031 13.9846 12.4963 13.801 12.5495 13.5673C12.6027 13.3336 12.5827 13.1299 12.4896 12.9563C12.4098 12.756 12.2834 12.5957 12.1104 12.4755C11.9374 12.3553 11.7379 12.2952 11.5117 12.2952C11.0061 12.2952 10.5271 12.1416 10.0747 11.8345C9.62232 11.5273 9.29634 11.14 9.09676 10.6726C8.89718 10.2051 8.85061 9.70099 8.95706 9.16011C9.0635 8.61923 9.29634 8.1685 9.65558 7.80791C9.97973 7.4934 10.339 7.27356 10.7333 7.1484V6.58592C10.7333 6.37224 10.8098 6.18861 10.9628 6.03503C11.1158 5.88145 11.2988 5.80466 11.5117 5.80466C11.7246 5.80466 11.9075 5.88145 12.0605 6.03503C12.2135 6.18861 12.29 6.37224 12.29 6.58592V7.15752C12.3699 7.18343 12.4497 7.21326 12.5295 7.247C13.0351 7.46068 13.4276 7.78454 13.707 8.21858C13.9864 8.65262 14.1262 9.13674 14.1262 9.67094C14.1262 9.88462 14.0496 10.0649 13.8966 10.2118C13.7436 10.3587 13.5607 10.4322 13.3478 10.4322C13.1349 10.4322 12.9553 10.3587 12.8089 10.2118C12.6626 10.0649 12.5894 9.8913 12.5894 9.69097C12.5894 9.49065 12.5295 9.28364 12.4098 9.06996C12.29 8.89635 12.1304 8.7628 11.9308 8.66931Z" fill="#D9D9D9"/>
</svg>
