<svg width="28" height="28" viewBox="0 0 28 28" fill="none" xmlns="http://www.w3.org/2000/svg">
<path fill-rule="evenodd" clip-rule="evenodd" d="M27.3327 14.0013C27.3327 21.3651 21.3631 27.3346 13.9993 27.3346C6.63555 27.3346 0.666016 21.3651 0.666016 14.0013C0.666016 6.63751 6.63555 0.667969 13.9993 0.667969C21.3631 0.667969 27.3327 6.63751 27.3327 14.0013ZM12.666 11.3346C11.9296 11.3346 11.3327 11.9316 11.3327 12.668C11.3327 13.4043 11.9296 14.0013 12.666 14.0013V20.668C12.666 21.4043 13.263 22.0013 13.9993 22.0013H15.3327C16.0691 22.0013 16.666 21.4043 16.666 20.668C16.666 19.9316 16.0691 19.3346 15.3327 19.3346V12.668C15.3327 11.9316 14.7357 11.3346 13.9993 11.3346H12.666ZM12.666 8.0013C12.666 7.26492 13.263 6.66797 13.9993 6.66797C14.7357 6.66797 15.3327 7.26492 15.3327 8.0013C15.3327 8.73768 14.7357 9.33464 13.9993 9.33464C13.263 9.33464 12.666 8.73768 12.666 8.0013Z" fill="#FFCB2D"/>
</svg>
