<svg width="23" height="24" viewBox="0 0 23 24" fill="none" xmlns="http://www.w3.org/2000/svg">
<path d="M17.2763 17.5175L14.6007 17.1483V15.807C15.4513 15.3216 16.1599 14.6217 16.6558 13.7772C17.1517 12.9326 17.4176 11.9729 17.4271 10.9935H17.7806C18.166 10.993 18.5356 10.8397 18.8081 10.5671C19.0806 10.2945 19.2339 9.92499 19.2344 9.53954V9.25711C19.2339 8.89669 19.0998 8.54925 18.8579 8.28203C18.6161 8.01482 18.2837 7.84683 17.9251 7.81059C17.8795 6.54233 17.4414 5.31948 16.6713 4.31083C15.9011 3.30219 14.8368 2.55749 13.6253 2.17955C13.5711 1.90266 13.4222 1.65331 13.204 1.47439C12.9859 1.29547 12.7122 1.19817 12.4301 1.19923H11.1723C10.8906 1.19856 10.6174 1.2956 10.3992 1.47381C10.1811 1.65201 10.0315 1.90035 9.97591 2.17651C8.76239 2.55321 7.69597 3.29784 6.92429 4.30733C6.1526 5.31681 5.7138 6.54121 5.66863 7.81106C5.30981 7.84702 4.9771 8.01488 4.73496 8.28212C4.49282 8.54936 4.35848 8.89695 4.35796 9.25758V9.54001C4.35852 9.9255 4.51196 10.295 4.78463 10.5675C5.0573 10.84 5.42693 10.9932 5.81242 10.9935H6.16312C6.1739 11.9727 6.44068 12.932 6.93696 13.7762C7.43324 14.6204 8.14174 15.32 8.99209 15.8056V17.1504L6.3193 17.5175C3.56304 17.896 1.5 20.0759 1.5 22.6503C1.50006 22.7588 1.54319 22.8628 1.61991 22.9395C1.69662 23.0162 1.80065 23.0594 1.90915 23.0594H21.6874C21.7959 23.0594 21.8999 23.0162 21.9766 22.9395C22.0533 22.8628 22.0965 22.7588 22.0965 22.6503C22.0953 20.0586 20.0136 17.8934 17.2763 17.5175ZM11.7988 16.5622C12.4764 16.5625 13.1484 16.4402 13.7824 16.2014V17.4569C13.7824 18.1258 12.4544 18.3718 11.7988 18.3718C10.6614 18.3718 9.83704 17.9042 9.81155 17.4833C9.81155 17.474 9.81155 17.4628 9.81155 17.4599V16.2C10.4468 16.4394 11.12 16.5621 11.7988 16.5622ZM11.1723 2.01752H12.4301C12.4883 2.01727 12.546 2.02957 12.599 2.05359C12.6521 2.07761 12.6994 2.11278 12.7376 2.15671C12.7759 2.20064 12.8042 2.25229 12.8207 2.30816C12.8372 2.36402 12.8414 2.42279 12.8332 2.48045C12.8229 2.75773 12.6969 5.51609 12.6969 5.51609C12.6857 5.74616 12.5865 5.96312 12.4197 6.12201C12.2529 6.28089 12.0314 6.36951 11.8011 6.36951C11.5707 6.36951 11.3492 6.28089 11.1824 6.12201C11.0157 5.96312 10.9164 5.74616 10.9053 5.51609C10.9053 5.51609 10.7732 2.59922 10.769 2.48746C10.7603 2.42937 10.7643 2.37011 10.7806 2.31369C10.7969 2.25727 10.8251 2.20501 10.8634 2.16045C10.9016 2.11589 10.949 2.08006 11.0023 2.0554C11.0556 2.03075 11.1135 2.01783 11.1723 2.01752ZM6.98142 10.9935H16.61C16.5923 12.2588 16.0773 13.4663 15.1763 14.3549C14.2753 15.2434 13.0608 15.7415 11.7953 15.7415C10.5299 15.7415 9.31536 15.2434 8.41436 14.3549C7.51336 13.4663 6.99905 12.2588 6.98142 10.9935ZM4.98828 22.2411V18.7479C5.49137 18.522 6.02585 18.3738 6.57344 18.3084V22.2411H4.98828ZM17.0172 22.2411V18.3077C17.5663 18.3645 18.102 18.5124 18.6024 18.7454V22.2411H17.0172Z" fill="white"/>
</svg>
